<?xml version="1.0" encoding="utf-8"?>
<!-- Generator: Adobe Illustrator 19.2.1, SVG Export Plug-In . SVG Version: 6.00 Build 0)  -->
<svg version="1.1" id="Layer_1" xmlns="http://www.w3.org/2000/svg" xmlns:xlink="http://www.w3.org/1999/xlink" x="0px" y="0px"
	 viewBox="0 0 72 72" style="enable-background:new 0 0 72 72;" xml:space="preserve">
<style type="text/css">
	.st0{fill:#FFFFFF;}
	.st1{fill:#00FCFC;}
	.st2{fill:#09E8D8;}
	.st3{fill:#004058;}
	.st4{fill:#008888;}
	.st5{fill:#BCBCBC;}
	.st6{fill:#00006B;}
	.st7{fill:#0000BC;}
	.st8{fill:#D8D8D8;}
	.st9{fill:#D7B8F8;}
	.st10{fill:#9978F8;}
	.st11{fill:#6944FC;}
	.st12{fill:#4428BC;}
	.st13{fill:#AE3201;}
	.st14{fill:#787878;}
	.st15{fill:#393939;}
	.st16{fill:#E45C11;}
	.st17{fill:#FCA044;}
	.st18{fill:#881400;}
	.st19{fill:#F8F8F8;}
</style>
<path class="st0" d="M65.2,62.2h-1.5v1.5h-1.5v1.5h-1.5v1.5H11.2v-1.5H9.7v-1.5H8.2v-1.5H6.7V12.7h1.5v-1.5h1.5V9.7h1.5V8.2h15V6.7
	h3V5.2h1.5V3.7h10.5v1.5h1.5v1.5h3v1.5h15v1.5h1.5v1.5h1.5v1.5h1.5V62.2z"/>
<path class="st1" d="M46.5,33H48v1.5h-1.5V33z M42,33h1.5v1.5H42V33z M25.5,33H27v1.5h-1.5V33z M21,33h1.5v1.5H21V33z M48,31.5h1.5
	V33H48V31.5z M43.5,31.5H45V33h-1.5V31.5z M39,31.5h1.5V33H39V31.5z M27,31.5h1.5V33H27V31.5z M22.5,31.5H24V33h-1.5V31.5z M49.5,30
	H51v1.5h-1.5V30z M45,30h1.5v1.5H45V30z M40.5,30H42v1.5h-1.5V30z M28.5,30H30v1.5h-1.5V30z M24,30h1.5v1.5H24V30z M46.5,28.5H48V30
	h-1.5V28.5z M48,27h1.5v1.5H48V27z M49.5,25.5H51V27h-1.5V25.5z"/>
<path class="st2" d="M48,33v1.5h3v-3h-1.5V33H48z"/>
<path class="st2" d="M43.5,33v1.5h3V33H48v-1.5h1.5V30H51v-3h-1.5v1.5H48V30h-1.5v1.5H45V33H43.5z"/>
<path class="st2" d="M42,34.5V33h1.5v-1.5H45V30h-3v1.5h-1.5v3H42z M27,33v1.5h4.5V33H33v-3h-3v1.5h-1.5V33H27z"/>
<path class="st2" d="M24,31.5V33h-1.5v1.5h3V33H27v-1.5h1.5V30h-3v1.5H24z"/>
<path class="st2" d="M22.5,31.5H24V30h1.5v-1.5H24v-3h-3V33h1.5V31.5z M39,30h1.5v1.5H39V30z M48,25.5h1.5V27H48V25.5z"/>
<path class="st3" d="M46.5,30v-1.5H45V30H46.5z M25.5,30H27v-1.5h-1.5V30z M39,27v1.5h1.5V30h3v-1.5H45V27H39z M27,28.5h1.5V30h3
	v-1.5H33V27h-6V28.5z M45,27h3v-1.5h-1.5V24H39v1.5h6V27z M37.5,25.5V27H39v-1.5H37.5z M33,27h1.5v-1.5H33V27z M33,25.5V24h-7.5v1.5
	H24V27h3v-1.5H33z"/>
<path class="st4" d="M21,25.5h4.5V24h-6v9H21V25.5z M37.5,27H39v4.5h-1.5V27z M33,27h1.5v4.5H33V27z M45,27h3v1.5h-3V27z"/>
<path class="st4" d="M24,27h3v1.5h-3V27z M39,25.5h6V27h-6V25.5z M27,25.5h6V27h-6V25.5z M51,33h1.5v-9h-6v1.5H51V33z M37.5,24H39
	v1.5h-1.5V24z M33,24h1.5v1.5H33V24z"/>
<path class="st5" d="M37.5,42H39v1.5h-1.5V42z M9,22.5h1.5V24H9V22.5z M33,42h1.5v1.5H33V42z M61.5,22.5H63V24h-1.5V22.5z"/>
<path class="st5" d="M61.5,61.5H60V63H12v-1.5h-1.5v-36H9V63h1.5v1.5h51V63H63V25.5h-1.5V61.5z"/>
<path class="st6" d="M24,45h-1.5v3H18v1.5h6V45z M13.5,51H15v1.5h-1.5V51z M15,49.5h3V51h-3V49.5z M21,42h1.5v3H21V42z M15,28.5h1.5
	v6H15V28.5z M19.5,37.5H21V42h-1.5V37.5z M16.5,24H18v4.5h-1.5V24z M16.5,34.5H18V36h-1.5V34.5z M18,36h1.5v1.5H18V36z M18,15h1.5v9
	H18V15z M57,51h1.5v1.5H57V51z M52.5,15H54v9h-1.5V15z M54,49.5h3V51h-3V49.5z M51,37.5h1.5V42H51V37.5z M54,24h1.5v4.5H54V24z
	 M49.5,48v-3H48v4.5h6V48H49.5z M49.5,42H51v3h-1.5V42z M52.5,36H54v1.5h-1.5V36z M55.5,28.5H57v6h-1.5V28.5z M54,34.5h1.5V36H54
	V34.5z"/>
<path class="st7" d="M13.5,31.5H15V33h-1.5V31.5z M13.5,28.5H15V30h-1.5V28.5z M13.5,19.5H15V21h-1.5V19.5z M13.5,16.5H15V18h-1.5
	V16.5z M13.5,22.5H15V24h-1.5V22.5z M15,15h1.5v1.5H15V15z M13.5,25.5H15V27h-1.5V25.5z M15,27h1.5v1.5H15V27z M15,21h1.5v1.5H15V21
	z M16.5,22.5H18V24h-1.5V22.5z M15,24h1.5v1.5H15V24z M15,18h1.5v1.5H15V18z M16.5,16.5H18V18h-1.5V16.5z M16.5,19.5H18V21h-1.5
	V19.5z M15,36h1.5v1.5H15V36z M13.5,40.5H15V42h-1.5V40.5z M13.5,43.5H15V45h-1.5V43.5z M13.5,34.5H15V36h-1.5V34.5z M13.5,37.5H15
	V39h-1.5V37.5z M13.5,49.5H15V51h-1.5V49.5z M15,48h1.5v1.5H15V48z M13.5,46.5H15V48h-1.5V46.5z M19.5,46.5H21V48h-1.5V46.5z
	 M16.5,40.5H18V42h-1.5V40.5z M15,39h1.5v1.5H15V39z M15,42h1.5v1.5H15V42z M18,39h1.5v1.5H18V39z M18,42h1.5v1.5H18V42z M19.5,43.5
	H21V45h-1.5V43.5z M16.5,43.5H18V45h-1.5V43.5z M15,45h1.5v1.5H15V45z M16.5,46.5H18V48h-1.5V46.5z M21,45h1.5v1.5H21V45z M18,45
	h1.5v1.5H18V45z M16.5,37.5H18V39h-1.5V37.5z M57,18h1.5v1.5H57V18z M55.5,22.5H57V24h-1.5V22.5z M55.5,25.5H57V27h-1.5V25.5z
	 M54,21h1.5v1.5H54V21z M55.5,19.5H57V21h-1.5V19.5z M54,18h1.5v1.5H54V18z M57,21h1.5v1.5H57V21z M57,24h1.5v1.5H57V24z M57,27h1.5
	v1.5H57V27z M55.5,16.5H57V18h-1.5V16.5z M54,15h1.5v1.5H54V15z M57,15h1.5v1.5H57V15z M57,30h1.5v1.5H57V30z M54,45h1.5v1.5H54V45z
	 M49.5,46.5H51V48h-1.5V46.5z M54,36h1.5v1.5H54V36z M54,42h1.5v1.5H54V42z M52.5,40.5H54V42h-1.5V40.5z M51,45h1.5v1.5H51V45z
	 M52.5,37.5H54V39h-1.5V37.5z M51,42h1.5v1.5H51V42z M54,39h1.5v1.5H54V39z M55.5,37.5H57V39h-1.5V37.5z M55.5,34.5H57V36h-1.5V34.5
	z M57,33h1.5v1.5H57V33z M55.5,40.5H57V42h-1.5V40.5z M52.5,46.5H54V48h-1.5V46.5z M52.5,43.5H54V45h-1.5V43.5z M55.5,46.5H57V48
	h-1.5V46.5z M55.5,43.5H57V45h-1.5V43.5z M57,48h1.5v1.5H57V48z M54,48h1.5v1.5H54V48z M57,42h1.5v1.5H57V42z M57,45h1.5v1.5H57V45z
	 M57,39h1.5v1.5H57V39z M57,36h1.5v1.5H57V36z"/>
<path class="st8" d="M61.5,24H63v1.5h-1.5V24z M9,24h1.5v1.5H9V24z M61.5,18H63v4.5h-1.5V18z M9,18h1.5v4.5H9V18z M61.5,15H63v1.5
	h-1.5V15z M9,15h1.5v1.5H9V15z"/>
<path class="st9" d="M39,16.5h1.5V18H39V16.5z M36,16.5h1.5V18H36V16.5z M33,16.5h1.5V18H33V16.5z M30,16.5h1.5V18H30V16.5z
	 M40.5,15H42v1.5h-1.5V15z M37.5,15H39v1.5h-1.5V15z M34.5,15H36v1.5h-1.5V15z M31.5,15H33v1.5h-1.5V15z M39,13.5h1.5V15H39V13.5z
	 M36,13.5h1.5V15H36V13.5z M33,13.5h1.5V15H33V13.5z M30,13.5h1.5V15H30V13.5z"/>
<path class="st10" d="M39,15h1.5v1.5H39V15z M45,15v-1.5h-4.5V15H42v1.5h-1.5V18H45v-1.5h1.5V15H45z M46.5,16.5H48V18h-1.5V16.5z
	 M37.5,16.5H39V18h-1.5V16.5z M34.5,16.5H36V18h-1.5V16.5z M24,16.5h1.5V18H24V16.5z M34.5,13.5H36V15h-1.5V13.5z M33,15h1.5v1.5H33
	V15z M36,15h1.5v1.5H36V15z M30,15v-1.5h-3V15h-1.5v1.5H27V18h3v-1.5h1.5V15H30z M31.5,13.5H33V15h-1.5V13.5z M37.5,13.5H39V15h-1.5
	V13.5z M31.5,16.5H33V18h-1.5V16.5z"/>
<path class="st11" d="M49.5,15h-3v1.5H48V18h-1.5v1.5h3V21h3v-4.5h-3V15z M45,16.5h1.5V18H45V16.5z M25.5,16.5H27V18h-1.5V16.5z
	 M22.5,16.5h-3V21h3v-1.5h3V18H24v-1.5h1.5V15h-3V16.5z M45,13.5h1.5V15H45V13.5z M25.5,13.5H27V15h-1.5V13.5z"/>
<path class="st12" d="M49.5,15h3v1.5h-3V15z M25.5,12h21v1.5h-21V12z M46.5,13.5h3V15h-3V13.5z M19.5,15h3v1.5h-3V15z M22.5,13.5h3
	V15h-3V13.5z M13.5,24H15v1.5h-1.5V24z M13.5,30H15v1.5h-1.5V30z M16.5,21H18v1.5h-1.5V21z M15,19.5h1.5V21H15V19.5z M16.5,18H18
	v1.5h-1.5V18z M13.5,18H15v1.5h-1.5V18z M13.5,21H15v1.5h-1.5V21z M13.5,15H15v1.5h-1.5V15z M15,16.5h1.5V18H15V16.5z M16.5,15H18
	v1.5h-1.5V15z M15,25.5h1.5V27H15V25.5z M13.5,27H15v1.5h-1.5V27z M15,22.5h1.5V24H15V22.5z M21,46.5h1.5V48H21V46.5z M16.5,48H18
	v1.5h-1.5V48z M57,40.5h1.5V42H57V40.5z M57,37.5h1.5V39H57V37.5z M54,37.5h1.5V39H54V37.5z M52.5,39H54v1.5h-1.5V39z M49.5,45H51
	v1.5h-1.5V45z M54,40.5h1.5V42H54V40.5z M57,43.5h1.5V45H57V43.5z M57,49.5h1.5V51H57V49.5z M57,46.5h1.5V48H57V46.5z M55.5,48H57
	v1.5h-1.5V48z M51,46.5h1.5V48H51V46.5z M54,43.5h1.5V45H54V43.5z M55.5,18H57v1.5h-1.5V18z M57,16.5h1.5V18H57V16.5z M54,16.5h1.5
	V18H54V16.5z M55.5,15H57v1.5h-1.5V15z M55.5,27H57v1.5h-1.5V27z M55.5,36H57v1.5h-1.5V36z M55.5,42H57v1.5h-1.5V42z M55.5,39H57
	v1.5h-1.5V39z M57,34.5h1.5V36H57V34.5z M57,31.5h1.5V33H57V31.5z M52.5,45H54v1.5h-1.5V45z M51,43.5h1.5V45H51V43.5z M55.5,45H57
	v1.5h-1.5V45z M54,46.5h1.5V48H54V46.5z M57,25.5h1.5V27H57V25.5z M55.5,24H57v1.5h-1.5V24z M54,22.5h1.5V24H54V22.5z M55.5,21H57
	v1.5h-1.5V21z M52.5,42H54v1.5h-1.5V42z M57,22.5h1.5V24H57V22.5z M57,19.5h1.5V21H57V19.5z M54,19.5h1.5V21H54V19.5z M57,28.5h1.5
	V30H57V28.5z M18,43.5h1.5V45H18V43.5z M49.5,21h3v1.5h-3V21z M46.5,19.5h3V21h-3V19.5z M19.5,45H21v1.5h-1.5V45z M19.5,21h3v1.5h-3
	V21z M25.5,18h21v1.5h-21V18z M22.5,19.5h3V21h-3V19.5z M18,46.5h1.5V48H18V46.5z M13.5,45H15v1.5h-1.5V45z M18,37.5h1.5V39H18V37.5
	z M13.5,33H15v1.5h-1.5V33z M15,46.5h1.5V48H15V46.5z M16.5,45H18v1.5h-1.5V45z M19.5,42H21v1.5h-1.5V42z M13.5,42H15v1.5h-1.5V42z
	 M13.5,39H15v1.5h-1.5V39z M13.5,36H15v1.5h-1.5V36z M15,34.5h1.5V36H15V34.5z M15,37.5h1.5V39H15V37.5z M15,40.5h1.5V42H15V40.5z
	 M15,43.5h1.5V45H15V43.5z M16.5,36H18v1.5h-1.5V36z M18,40.5h1.5V42H18V40.5z M13.5,48H15v1.5h-1.5V48z M16.5,42H18v1.5h-1.5V42z
	 M16.5,39H18v1.5h-1.5V39z"/>
<path class="st13" d="M30,54h1.5v1.5H30V54z M31.5,55.5h9V57h-9V55.5z M40.5,54H42v1.5h-1.5V54z M42,52.5h1.5V54H42V52.5z M21,13.5
	h1.5V15H21V13.5z M19.5,34.5H21V36h-1.5V34.5z M39,43.5h1.5V45H39V43.5z M31.5,43.5H33V45h-1.5V43.5z M33,48h6v1.5h-6V48z M43.5,51
	H45v1.5h-1.5V51z M25.5,45H27v3h-1.5V45z M46.5,21h3v1.5h-3V21z M25.5,19.5h21V21h-21V19.5z M28.5,52.5H30V54h-1.5V52.5z M22.5,21h3
	v1.5h-3V21z M48,51h1.5v4.5H48V51z M27,51h1.5v1.5H27V51z M46.5,49.5H48V51h-1.5V49.5z M45,58.5h1.5V60H45V58.5z M46.5,55.5H48v3
	h-1.5V55.5z M25.5,58.5H27V60h-1.5V58.5z M24,55.5h1.5v3H24V55.5z M22.5,51H24v4.5h-1.5V51z M24,40.5h1.5V45H24V40.5z M24,49.5h1.5
	V51H24V49.5z M22.5,37.5v3H24v-3h7.5V36H21v1.5H22.5z M13.5,57H15v3h-1.5V57z M51,34.5h1.5V36H51V34.5z M52.5,33H54v1.5h-1.5V33z
	 M57,57h1.5v3H57V57z M40.5,37.5H48V42h1.5v-4.5H51V36H40.5V37.5z M46.5,42H48v3h-1.5V42z M45,45h1.5v3H45V45z"/>
<path class="st14" d="M16.5,58.5H18V60h-1.5V58.5z M22.5,58.5H24V60h-1.5V58.5z M54,58.5h1.5V60H54V58.5z M12,12h7.5v1.5H12V12z
	 M52.5,12H60v1.5h-7.5V12z M60,13.5h1.5v48H60V13.5z M10.5,13.5H12v48h-1.5V13.5z M12,61.5h48V63H12V61.5z M48,58.5h1.5V60H48V58.5z
	 M61.5,63H63v1.5h-1.5V63z M63,12h1.5v51H63V12z M61.5,10.5H63V12h-1.5V10.5z M10.5,64.5h51V66h-51V64.5z M49.5,9h12v1.5h-12V9z
	 M9,63h1.5v1.5H9V63z M10.5,9h12v1.5h-12V9z M9,10.5h1.5V12H9V10.5z M7.5,12H9v51H7.5V12z"/>
<path class="st15" d="M48,9h1.5v1.5H48V9z M51,12h1.5v1.5H51V12z M49.5,10.5H51V12h-1.5V10.5z M21,10.5h1.5V12H21V10.5z M22.5,9H24
	v1.5h-1.5V9z M19.5,12H21v1.5h-1.5V12z M22.5,58.5H21v-3h-1.5V51H18v9h4.5V58.5z M52.5,55.5H51v3h-1.5V60H54v-9h-1.5V55.5z"/>
<path class="st16" d="M45,60v-1.5h1.5V57H45v-4.5h-1.5V54H42v1.5h-1.5V57h-9v-1.5H30V54h-1.5v-1.5H27V57h-1.5v1.5H27V60H45z
	 M57,55.5h1.5V57H57V55.5z M13.5,55.5H15V57h-1.5V55.5z M46.5,52.5H48v3h-1.5V52.5z M24,52.5h1.5v3H24V52.5z M31.5,45H33v3h-1.5V45z
	 M39,45h1.5v3H39V45z M27,45v-4.5h1.5V39H30v-1.5h-6v3h1.5V45H27z M48,37.5h-6V39h1.5v1.5H45V45h1.5v-3H48V37.5z M33,36h6v-3h-1.5
	v-1.5h-3V33H33V36z M18,33h1.5v1.5H18V33z M33,22.5h1.5V24h3v-1.5H39V21h-6V22.5z M49.5,13.5H51V15h-1.5V13.5z M25.5,12h6V7.5h9V12
	h6v1.5h3V12H48v-1.5h-1.5V9h-3V7.5H42V6H30v1.5h-1.5V9h-3v1.5H24V12h-1.5v1.5h3V12z"/>
<path class="st17" d="M24,51h1.5v1.5H24V51z M31.5,7.5h9V12h-9V7.5z M33,45h6v1.5h-6V45z M33,36h6v1.5h-6V36z M57,54h1.5v1.5H57V54z
	 M13.5,54H15v1.5h-1.5V54z M46.5,51H48v1.5h-1.5V51z"/>
<path class="st18" d="M57,52.5h1.5V54H57V52.5z M13.5,52.5H15V54h-1.5V52.5z M48,49.5h1.5V51H48V49.5z M22.5,49.5H24V51h-1.5V49.5z
	 M33,46.5h6V48h-6V46.5z M25.5,49.5V57H27v-9h-1.5v-3H24v4.5H25.5z M46.5,48H45v9h1.5v-7.5H48V45h-1.5V48z M48,42h1.5v3H48V42z
	 M22.5,42v3H24v-4.5h-1.5v-3H21V42H22.5z M49.5,37.5H51V42h-1.5V37.5z M33,37.5h6V39h-6V37.5z M51,36h1.5v1.5H51V36z M39,34.5h1.5v3
	H39V34.5z M19.5,36H21v1.5h-1.5V36z M52.5,34.5H54V36h-1.5V34.5z M31.5,34.5H33v3h-1.5V34.5z M18,34.5h1.5V36H18V34.5z M16.5,28.5
	H18v6h-1.5V28.5z M54,28.5h1.5v6H54V28.5z M51,13.5h1.5V15H51V13.5z M19.5,13.5H21V15h-1.5V13.5z M49.5,12H51v1.5h-1.5V12z M21,12
	h1.5v1.5H21V12z M48,10.5h1.5V12H48V10.5z M22.5,10.5H24V12h-1.5V10.5z M46.5,9H48v1.5h-1.5V9z M24,9h1.5v1.5H24V9z M43.5,7.5h3V9
	h-3V7.5z M25.5,7.5h3V9h-3V7.5z M42,6h1.5v1.5H42V6z M28.5,6H30v1.5h-1.5V6z M30,4.5h12V6H30V4.5z"/>
<path class="st19" d="M61.5,16.5H63V18h-1.5V16.5z M9,16.5h1.5V18H9V16.5z M10.5,13.5H12V12h9v-1.5H10.5V12H9v3h1.5V13.5z
	 M61.5,10.5H51V12h9v1.5h1.5V15H63v-3h-1.5V10.5z"/>
<path d="M30,4.5h-1.5V6H30V4.5z M10.5,9H9v1.5h1.5V9z M9,10.5H7.5V12H9V10.5z M43.5,6V4.5H42V6H43.5z M25.5,7.5h-15V9h15V7.5z
	 M61.5,9V7.5h-15V9H61.5z M6,12v51h1.5V12H6z M42,3H30v1.5h12V3z M10.5,67.5h51V66h-51V67.5z M64.5,12v-1.5H63V12H64.5z M7.5,63v1.5
	H9V63H7.5z M46.5,7.5V6h-3v1.5H46.5z M63,10.5V9h-1.5v1.5H63z M28.5,6h-3v1.5h3V6z M24,58.5v-3h-1.5v3H24z M21,55.5h1.5v-6H18V51h3
	V55.5z M49.5,55.5H48v3h1.5V55.5z M9,64.5V66h1.5v-1.5H9z M52.5,15h6v45H57v-9h-3v1.5h1.5V60H48v-1.5h-1.5V60h-21v-1.5H24V60h-7.5
	v-7.5H18V51h-3v9h-1.5V15h6v-1.5H12v48h48v-48h-7.5V15z M51,51h3v-1.5h-4.5v6H51V51z M64.5,12v51H66V12H64.5z M46.5,21H39v1.5h7.5
	V21z M63,64.5h1.5V63H63V64.5z M61.5,66H63v-1.5h-1.5V66z M33,21h-7.5v1.5H33V21z M33,37.5h-3V39h-1.5v1.5H27V51h1.5v1.5H30V54h1.5
	v1.5h9V54H42v-1.5h1.5V51H45V40.5h-1.5V39H42v-1.5h-3V39h-6V37.5z M39,42v1.5h1.5V48H39v1.5h-6V48h-1.5v-4.5H33V42H39z M33,45h6
	v-1.5h-6V45z"/>
</svg>
