<?xml version="1.0" encoding="utf-8"?>
<!-- Generator: Adobe Illustrator 18.1.1, SVG Export Plug-In . SVG Version: 6.00 Build 0)  -->
<!DOCTYPE svg PUBLIC "-//W3C//DTD SVG 1.1//EN" "http://www.w3.org/Graphics/SVG/1.1/DTD/svg11.dtd">
<svg version="1.1" id="Layer_1" xmlns="http://www.w3.org/2000/svg" xmlns:xlink="http://www.w3.org/1999/xlink" x="0px" y="0px"
	 viewBox="0 0 72 72" enable-background="new 0 0 72 72" xml:space="preserve">
<g>
	<path fill="#FFFFFF" d="M37.1,3.4c2.2,0,11.2,1.1,16.7,6S60.3,25.1,60,31c-0.2,5.9,3.6,13.2,5,18.9c1.4,5.8-7.3,14.7-9.3,17
		s-6.4,1.8-9.5,1s-7.4-2-9.8-2h-0.9c-2.4,0-6.7,1.2-9.8,2s-7.4,1.3-9.5-1c-2-2.3-10.8-11.3-9.3-17c1.4-5.8,5.3-13.1,5-18.9
		c-0.2-5.9,0.7-16.7,6.2-21.6s14.5-6,16.7-6C34.8,3.4,37.1,3.4,37.1,3.4z"/>
	<path fill="#D1D3D4" d="M35,3c0,0,5.7,0,8.9,6.5s2.8,17.7,3,19.4c0.3,1.6-0.3,7.1-2.9,5.3c-2.7-1.8-5.7-3.2-4.1-1.6
		c1.6,1.5,4.6,3.3,5.6,5.6s-4.7,10.6-4.4,11.3s3.4,2.8,4.3,4.1s0.3,7.6,0.8,10.1s8,6,12.7,0.5s6.8-8.9,7.1-10.6
		c0.3-1.8-0.6-4.1-1.1-6.5s-3.5-11.5-3.8-13.7s-0.4-7.1-0.5-9.8s-2.3-9.8-4.6-12.9C53.7,7.4,46.4,2.8,35,3"/>
	<path fill="#010202" d="M37.1,3.4c2.2,0,11.2,1.1,16.7,6S60.3,25.1,60,31c-0.2,5.9,3.6,13.2,5,18.9c1.4,5.8-7.3,14.7-9.3,17
		c-1.1,1.2-2.9,1.7-4.7,1.7c-1.6,0-3.3-0.3-4.7-0.7c-3.1-0.8-7.4-2-9.8-2h-0.9c-2.4,0-6.7,1.2-9.8,2c-1.4,0.4-3.1,0.7-4.7,0.7
		c-1.9,0-3.6-0.4-4.7-1.7c-2-2.3-10.8-11.3-9.3-17c1.4-5.8,5.3-13.1,5-18.9c-0.2-5.9,0.7-16.7,6.2-21.6s14.5-6,16.7-6L37.1,3.4
		 M37.1,1.8h-2.2c-2.2,0-11.8,1.1-17.8,6.4C10,14.5,10.2,28.3,10.3,31c0.1,3.6-1.4,7.9-2.9,12c-0.8,2.3-1.6,4.4-2.1,6.5
		C4,55,9.5,61.9,14.5,67.4c0.2,0.2,0.4,0.4,0.5,0.6c1.3,1.5,3.3,2.2,5.9,2.2c1.9,0,3.9-0.4,5.1-0.8l0.6-0.2c2.8-0.8,6.7-1.8,8.7-1.8
		h0.9c2,0,5.9,1,8.7,1.8l0.6,0.2c1.3,0.3,3.2,0.8,5.1,0.8c2.6,0,4.6-0.7,5.9-2.2c0.1-0.2,0.3-0.4,0.5-0.6c5-5.5,10.5-12.4,9.2-17.9
		c-0.5-2-1.3-4.2-2.1-6.5c-1.5-4.2-3-8.5-2.9-12c0.1-2.7,0.3-16.5-6.8-22.8C48.9,2.9,39.3,1.8,37.1,1.8"/>
	<path fill="#010202" d="M58,32.2h2.9l0.1-4.5H36.5h-0.7H11.3l0.1,4.5h2.9c1.3,0,3.2,3.9,2.7,4.7c-0.4,0.8-1.9,1.8-3.4,4
		c-1.4,2.2,0.3,4.9,0.7,5.7s5.6,6.7,6.6,7.6c1,0.9,1.7,1.6,3.2,1.3s3.3-2.3,5.6-4.1c2.2-1.7,4.2-2.8,6.4-2.9
		c2.2,0.1,4.2,1.2,6.4,2.9c2.3,1.8,4.1,3.8,5.6,4.1s2.2-0.4,3.2-1.3c1-0.9,6.1-6.8,6.6-7.6c0.4-0.8,2.2-3.5,0.7-5.7
		c-1.4-2.2-2.9-3.2-3.4-4C54.8,36.1,56.6,32.2,58,32.2 M54.2,47.4c-0.8,1.2-4.5,5.4-5,5.8c-0.5,0.4-1.4,1.2-3.1-0.8
		c-1.7-1.9-6.9-6.5-9.8-6.5c-0.1,0-0.1,0-0.2,0c-0.1,0-0.1,0-0.2,0c-3,0-8.1,4.6-9.8,6.5c-1.7,1.9-2.6,1.2-3.1,0.8s-4.1-4.6-5-5.8
		c-0.8-1.2-0.6-2.1-0.2-4c0.4-2,1.3-2.5,3.1-3c1.9-0.5,5.2-3.2,7.3-4.7c2-1.5,5.7-3.7,7.2-3.7c0.2,0,0.5,0,0.7,0s0.5,0,0.7,0
		c1.5,0,5.1,2.2,7.2,3.7c2,1.5,5.4,4.2,7.3,4.7c1.8,0.5,2.7,1,3.1,3C54.8,45.3,55,46.2,54.2,47.4"/>
	<path fill="#010202" d="M7.6,45.8c0,0-2.1,4.1-0.3,6.7c1.8,2.6,9.3,10.4,9.8,11.1s0.1,1.8-1.7,0.3c-1.8-1.4-9-8.9-9.3-10.2
		C5.8,52.3,5,49.3,7.6,45.8"/>
	<path fill="#010202" d="M54.6,66.5c-1.9,1.3-5,0.4-6.9-0.5c-2.8-1.3-5.2-3.3-7.9-4.4c-4.9-2.1-9.2,1.8-13.2,4.1
		c-1.2,0.6-2.4,1.2-3.8,1.4c-1.2,0.2-2.8,0.2-3.8-0.5c2.1,0.9,4.9-0.1,6.7-1.2c2.2-1.3,4.3-3,6.6-4.3c1.9-1.1,4.4-1.4,6.5-0.9
		c3,0.7,5.5,3.1,8,4.7C49,66.1,51.9,67.7,54.6,66.5"/>
	<path fill="#010202" d="M21.5,54.7l-2.2-1.9c-2.3-2-8.4-7.4-8.2-11.1c0.1-2.3,1.5-3.4,2.4-4.3c0.7-0.6,1-0.9,0.9-1.3
		c-0.4-1.4-3.2-4.6-3.2-4.6l0.6-0.4c0.1,0.1,2.9,3.3,3.3,4.9c0.2,0.9-0.5,1.5-1.2,2.1c-0.9,0.8-2,1.8-2.2,3.7
		c-0.2,3.3,5.9,8.7,7.9,10.4l2.2,1.9L21.5,54.7z"/>
	<rect x="14.7" y="36.2" fill="#010202" width="2.9" height="0.7"/>
	<path fill="#010202" d="M50.4,54.9l2.2-1.9c2.3-2,8.4-7.4,8.2-11.1c-0.1-2.3-1.5-3.4-2.4-4.3c-0.7-0.6-1-0.9-0.9-1.3
		c0.4-1.4,3.2-4.6,3.2-4.6L60,31.2c-0.1,0.1-2.9,3.3-3.3,4.9c-0.2,0.9,0.5,1.5,1.2,2.1c0.9,0.8,2,1.8,2.2,3.7
		c0.2,3.3-5.9,8.7-7.9,10.4L50,54.2L50.4,54.9z"/>
	<rect x="54.3" y="36.3" fill="#010202" width="2.9" height="0.7"/>
	<path fill="#010202" d="M11.8,46.9c0.1,0.2,0.1,0.4-0.1,0.5l-1.5,1c-0.2,0.1-0.4,0.1-0.5-0.1c-0.1-0.2-0.1-0.4,0.1-0.5l1.5-1
		C11.5,46.7,11.7,46.8,11.8,46.9"/>
	<path fill="#010202" d="M13,48.1c0.1,0.2,0.1,0.4-0.1,0.5l-1.5,1c-0.2,0.1-0.4,0.1-0.5-0.1c-0.1-0.2-0.1-0.4,0.1-0.5l1.5-1
		C12.6,47.9,12.9,47.9,13,48.1"/>
	<path fill="#010202" d="M14.1,49.2c0.1,0.2,0.1,0.4-0.1,0.5l-1.5,1c-0.2,0.1-0.4,0.1-0.5-0.1c-0.1-0.2-0.1-0.4,0.1-0.5l1.5-1
		C13.8,49,14,49.1,14.1,49.2"/>
	<path fill="#010202" d="M15.3,50.4c0.1,0.2,0.1,0.4-0.1,0.5l-1.5,1c-0.2,0.1-0.4,0.1-0.5-0.1c-0.1-0.2-0.1-0.4,0.1-0.5l1.5-1
		C14.9,50.2,15.2,50.2,15.3,50.4"/>
	<path fill="#010202" d="M16.4,51.5c0.1,0.2,0.1,0.4-0.1,0.5l-1.5,1c-0.2,0.1-0.4,0.1-0.5-0.1c-0.1-0.2-0.1-0.4,0.1-0.5l1.5-1
		C16.1,51.3,16.3,51.4,16.4,51.5"/>
	<path fill="#010202" d="M17.6,52.7c0.1,0.2,0.1,0.4-0.1,0.5l-1.5,1c-0.2,0.1-0.4,0.1-0.5-0.1c-0.1-0.2-0.1-0.4,0.1-0.5l1.5-1
		C17.2,52.5,17.5,52.5,17.6,52.7"/>
	<path fill="#010202" d="M61.1,46.9c-0.1,0.2-0.1,0.4,0.1,0.5l1.5,1c0.2,0.1,0.4,0.1,0.5-0.1c0.1-0.2,0.1-0.4-0.1-0.5l-1.5-1
		C61.4,46.7,61.2,46.8,61.1,46.9"/>
	<path fill="#010202" d="M59.9,48.1c-0.1,0.2-0.1,0.4,0.1,0.5l1.5,1c0.2,0.1,0.4,0.1,0.5-0.1c0.1-0.2,0.1-0.4-0.1-0.5l-1.5-1
		C60.2,47.9,60,47.9,59.9,48.1"/>
	<path fill="#010202" d="M58.8,49.2c-0.1,0.2-0.1,0.4,0.1,0.5l1.5,1c0.2,0.1,0.4,0.1,0.5-0.1c0.1-0.2,0.1-0.4-0.1-0.5l-1.5-1
		C59.1,49,58.9,49.1,58.8,49.2"/>
	<path fill="#010202" d="M57.6,50.4c-0.1,0.2-0.1,0.4,0.1,0.5l1.5,1c0.2,0.1,0.4,0.1,0.5-0.1c0.1-0.2,0.1-0.4-0.1-0.5l-1.5-1
		C57.9,50.2,57.7,50.2,57.6,50.4"/>
	<path fill="#010202" d="M56.5,51.5c-0.1,0.2-0.1,0.4,0.1,0.5l1.5,1c0.2,0.1,0.4,0.1,0.5-0.1c0.1-0.2,0.1-0.4-0.1-0.5l-1.5-1
		C56.8,51.3,56.6,51.4,56.5,51.5"/>
	<path fill="#010202" d="M55.3,52.7c-0.1,0.2-0.1,0.4,0.1,0.5l1.5,1c0.2,0.1,0.4,0.1,0.5-0.1c0.1-0.2,0.1-0.4-0.1-0.5l-1.5-1
		C55.6,52.5,55.4,52.5,55.3,52.7"/>
	<path fill="#828383" d="M56.5,60.9c0,1.5-1.2,2.7-2.7,2.7s-2.7-1.2-2.7-2.7s1.2-2.7,2.7-2.7S56.5,59.4,56.5,60.9 M53.9,59.6
		c-0.9,0-1.6,0.7-1.6,1.6c0,0.9,0.7,1.6,1.6,1.6c0.9,0,1.6-0.7,1.6-1.6C55.4,60.3,54.7,59.6,53.9,59.6"/>
</g>
</svg>
