<svg viewBox="0 0 72 72" xmlns="http://www.w3.org/2000/svg"><path d="m61.53 25.63c-4.69-5.42-13.09-8.16-25-8.16s-20.26 2.75-25 8.16a16.14 16.14 0 0 0 -3.79 11.32h2.45l-.08-.41a.5.5 0 0 1 .49-.6h51.88a.5.5 0 0 1 .06 1h2.88a16.14 16.14 0 0 0 -3.89-11.31zm-32.6-3.77c-.24.81-.9 2.7-2 2.85h-.1a1.27 1.27 0 0 1 -1.07-.71 1.5 1.5 0 0 1 -.17-1.54c.53-1.07 2.4-1.27 2.77-1.3l.8-.07zm3.95 7.67-.13.06a1.27 1.27 0 0 1 -1.26-.26 1.5 1.5 0 0 1 -.73-1.33c.09-1.19 1.75-2.08 2.08-2.25l.71-.36.08.79c.08.82.18 2.82-.75 3.35zm5.12-6.84a1.5 1.5 0 0 1 -1.17 1 1.27 1.27 0 0 1 -1.27-.21l-.1-.1c-.68-.83.13-2.67.51-3.42l.36-.71.54.59c.21.28 1.43 1.71 1.13 2.85zm5.33 6.52a1.27 1.27 0 0 1 -1.25.3l-.13-.06c-.95-.52-.95-2.52-.88-3.36l.06-.8.72.34c.34.16 2 1 2.14 2.19a1.5 1.5 0 0 1 -.69 1.39zm4.1-5.73a1.27 1.27 0 0 1 -1.07.71h-.17c-1.06-.15-1.73-2-2-2.85l-.19-.77.8.07c.37 0 2.24.24 2.77 1.3a1.5 1.5 0 0 1 -.17 1.54zm-37.22 26.19h52.73a2.5 2.5 0 0 1 2.5 2.5v1.46a2.5 2.5 0 0 1 -2.5 2.5h-52.73a2.5 2.5 0 0 1 -2.5-2.5v-1.45a2.51 2.51 0 0 1 2.5-2.51z" fill="#f47939"/><path d="m7.71 39.15v8.23a1.29 1.29 0 0 0 1.29 1.29h55.16a1.29 1.29 0 0 0 1.29-1.29v-8.23a1.29 1.29 0 0 0 -1.29-1.29h-9.38l-42.93 5.14h-.06a.5.5 0 0 1 -.49-.4l-.94-4.7h-1.36a1.29 1.29 0 0 0 -1.29 1.25z" fill="#cc5d3f"/><path d="m54.03 36.94h-42.83l.99 4.97z" fill="#fdb627"/><g fill="#414042"><path d="m64.57 37.49a4.07 4.07 0 0 0 -.41-1.91.77.77 0 0 0 0-.12 16.84 16.84 0 0 0 -4.08-12.62c-4.87-5.63-13.43-8.48-25.45-8.48s-20.55 2.85-25.41 8.48a16.84 16.84 0 0 0 -4.09 12.62 1 1 0 0 0 .2.45 2.76 2.76 0 0 0 -.28 1.2v7.84a2.77 2.77 0 0 0 1 2.14 4 4 0 0 0 -1 2.65v1a4 4 0 0 0 4 4h51.23a4 4 0 0 0 4-4v-1a4 4 0 0 0 -1-2.65 2.77 2.77 0 0 0 1-2.14v-6.77a1 1 0 0 0 .29-.69zm-2.7-1.07a.77.77 0 0 1 .25.23l-50.33 6-1.21-6.23zm-51.14-12.27c4.47-5.15 12.52-7.79 23.94-7.79s19.44 2.64 23.91 7.76a15.25 15.25 0 0 1 3.7 10.19h-55.22a15.16 15.16 0 0 1 3.67-10.16zm51.55 26.58a2 2 0 0 1 -2 2h-51.22a2 2 0 0 1 -2-2v-1a2 2 0 0 1 2-2h51.22a2 2 0 0 1 2 2zm-.79-5h-53.65a.79.79 0 0 1 -.79-.79v-7.84a.79.79 0 0 1 .79-.79h.69l1.47 7.64a1 1 0 0 0 1 .81h.12l51.17-6.1v6.3a.79.79 0 0 1 -.79.77z"/><path d="m37 19.3s2.21 2.44.23 3-.23-3-.23-3zm-8.75 1.85s-3.28.27-2.19 2 2.19-2 2.19-2zm16.66-.53s3.28.27 2.19 2-2.19-2-2.19-2zm-3.14 4.46s3 1.4 1.35 2.64-1.35-2.64-1.35-2.64zm-8.87.08s-2.9 1.49-1.27 2.69 1.27-2.69 1.27-2.69z"/></g></svg>