<svg id="Layer_1" xmlns="http://www.w3.org/2000/svg" viewBox="0 0 72 72"><style>.st0{fill:url(#SVGID_1_);} .st1{opacity:0.34;fill:#98522D;} .st2{fill:url(#SVGID_2_);} .st3{opacity:0.25;fill:#98522D;} .st4{fill:url(#SVGID_3_);} .st5{fill:url(#SVGID_4_);} .st6{fill:url(#SVGID_5_);} .st7{opacity:0.16;fill:#98522D;} .st8{fill:url(#SVGID_6_);} .st9{fill:url(#SVGID_7_);} .st10{fill:url(#SVGID_8_);} .st11{opacity:0.33;fill:#98522D;} .st12{fill:url(#SVGID_9_);} .st13{fill:url(#SVGID_10_);} .st14{opacity:0.4;fill:#A6002D;} .st15{fill:url(#SVGID_11_);} .st16{fill:url(#SVGID_12_);} .st17{fill:url(#SVGID_13_);} .st18{fill:url(#SVGID_14_);} .st19{fill:url(#SVGID_15_);} .st20{fill:url(#SVGID_16_);} .st21{fill:url(#SVGID_17_);} .st22{fill:#4C000E;} .st23{fill:#D0905B;} .st24{fill:url(#SVGID_18_);} .st25{fill:#B6102D;} .st26{fill:url(#SVGID_19_);} .st27{fill:url(#SVGID_20_);} .st28{fill:url(#SVGID_21_);} .st29{fill:url(#SVGID_22_);} .st30{fill:url(#SVGID_23_);} .st31{fill:url(#SVGID_24_);} .st32{fill:url(#SVGID_25_);} .st33{fill:url(#SVGID_26_);} .st34{fill:url(#SVGID_27_);} .st35{fill:url(#SVGID_28_);} .st36{fill:url(#SVGID_29_);} .st37{fill:url(#SVGID_30_);} .st38{fill:url(#SVGID_31_);} .st39{fill:url(#SVGID_32_);} .st40{fill:url(#SVGID_33_);} .st41{fill:url(#SVGID_34_);} .st42{fill:url(#SVGID_35_);} .st43{opacity:0.71;fill:url(#SVGID_36_);} .st44{opacity:0.71;fill:url(#SVGID_37_);} .st45{opacity:0.71;fill:url(#SVGID_38_);} .st46{opacity:0.71;fill:url(#SVGID_39_);} .st47{opacity:0.71;fill:url(#SVGID_40_);} .st48{opacity:0.71;fill:url(#SVGID_41_);} .st49{opacity:0.71;fill:url(#SVGID_42_);} .st50{opacity:0.71;fill:url(#SVGID_43_);} .st51{fill:url(#SVGID_44_);} .st52{fill:#FCAB34;} .st53{fill:none;} .st54{fill:url(#SVGID_45_);} .st55{fill:url(#SVGID_46_);} .st56{fill:url(#SVGID_47_);} .st57{fill:url(#SVGID_48_);} .st58{fill:url(#SVGID_49_);} .st59{fill:#610800;} .st60{fill:#FFDE5E;} .st61{fill:url(#SVGID_50_);} .st62{fill:url(#SVGID_51_);} .st63{fill:url(#SVGID_52_);} .st64{fill:url(#SVGID_53_);} .st65{fill:url(#SVGID_54_);} .st66{fill:url(#SVGID_55_);} .st67{fill:url(#SVGID_56_);} .st68{fill:url(#SVGID_57_);} .st69{fill:url(#SVGID_58_);}</style><radialGradient id="SVGID_1_" cx="1392.644" cy="552.904" r="178.649" gradientUnits="userSpaceOnUse"><stop offset="0" stop-color="#BE1E2D"/><stop offset="1" stop-color="#AF042D"/></radialGradient><path class="st0" d="M1462.9 418.8c78.7 37.1 55.7 117.4-8.2 143.1 5.7 2.4 14.8 1.8 18.5 1.7-55.3 43.5-155.8 56.6-246.7 20 87.5 137.2 234.4 108.1 275.1 66.4 93.5-95.7 112.8-221.1-16.6-281.5-18.1 35.3-22.1 50.3-22.1 50.3z"/><path class="st1" d="M1496.1 374c-4.1-1.3-8.2-2.4-12.2-3.2-17.1 33.7-21 48-21 48 63.2 9.5 81.9 57.9 72.9 108.5 6.2.4 18.4-6.8 19.9-9-14 70.5-91.6 145.2-182.1 164.7 56 7.3 106.7-11.1 128.1-33 90.7-93 111.5-213.7-5.6-276z"/><radialGradient id="SVGID_2_" cx="1488.704" cy="586.03" r="183.609" gradientUnits="userSpaceOnUse"><stop offset="0" stop-color="#D51E2D"/><stop offset="1" stop-color="#BE1E2D"/></radialGradient><path class="st2" d="M1462.9 418.8c63.9 2.8 87.6 48.9 84 100.1 4.8-1.7 9.9-4.8 11.2-7.2-7.2 79.9-84.1 168.2-187.4 187.3 131 46.8 220.4 15.5 270.6-106.1 50.1-121.6-77.7-216.5-165.7-224.4-31.4 12.4-12.7 50.3-12.7 50.3z"/><path class="st3" d="M1641.2 592.9c50.1-121.6-77.7-216.5-165.7-224.4-31.3 12.4-12.6 50.3-12.6 50.3 126-5.6 188.1 95.9 126.8 222.4 3.4-.9 20.8-9.2 23.5-17-7.3 22.9-19.5 43.2-34.7 60.2 25.2-21 46.1-51.3 62.7-91.5z"/><radialGradient id="SVGID_3_" cx="1580.135" cy="570.903" r="162.061" gradientUnits="userSpaceOnUse"><stop offset="0" stop-color="#E63223"/><stop offset="1" stop-color="#D51E2D"/></radialGradient><path class="st4" d="M1462.9 418.8c125.6-10.9 185.9 90.8 142 205.8 3.3-1.1 10.5-3.2 12.8-5.9-10.8 39.5-32.2 68.8-55.7 96.2 252-54 198.2-375.5-74.8-362.9-92.2 6.5-24.3 66.8-24.3 66.8z"/><linearGradient id="SVGID_4_" gradientUnits="userSpaceOnUse" x1="1440.189" y1="675.784" x2="1628.689" y2="495.284"><stop offset="0" stop-color="#FFF"/><stop offset="1" stop-color="#FFF" stop-opacity="0"/></linearGradient><path class="st5" d="M1604.8 624.5c3.3-1.1 10.5-3.2 12.8-5.9-9.5 35-27.5 62-47.8 86.7 0 0 34.8-31.4 56.1-93.5-2.3 2.8-9.5 4.8-12.8 5.9 33.4-79.7 4.6-161.4-74.6-189.9 72.1 27.5 100.2 108.1 66.3 196.7z"/><path class="st3" d="M1682.3 475.5c4.7-4.8 8.2-10.4 9.7-17.1 23.5 35.1 26.4 98.1 16.4 152 53.6-112.3-30.1-267.3-221.2-258.5-13.5 1-23.6 3.1-30.9 6-3.6 29.9 6.6 60.9 6.6 60.9 110.2-17.2 182.3 8.5 219.4 56.7z"/><radialGradient id="SVGID_5_" cx="1671.63" cy="500.407" r="185.997" gradientUnits="userSpaceOnUse"><stop offset="0" stop-color="#EF4136"/><stop offset="1" stop-color="#E63223"/></radialGradient><path class="st6" d="M1462.9 418.8c109.3-22.1 182.5.3 221.8 46.7 3.3-2.5 6.4-7.9 7.2-11.9 31.4 42.5 35.2 121.3 16.5 185.2 210.5-205.2-7.9-371.2-246.5-310.2-20.1 34.9 1 90.2 1 90.2z"/><path class="st7" d="M1634.8 366.5c.1-10.6-4.8-19.5-8.3-23.3 92.9 7 143.9 69.5 166.7 132.8-1.6-119.1-161.4-190.9-331.4-147.4-20 35 1 90.2 1 90.2 4.2-.9 8.4-1.6 12.5-2.4 65-14.4 109-51.3 159.5-49.9z"/><radialGradient id="SVGID_6_" cx="1683.63" cy="399.912" r="168.018" gradientUnits="userSpaceOnUse"><stop offset="0" stop-color="#F15A29"/><stop offset="1" stop-color="#EF4136"/></radialGradient><path class="st8" d="M1462.9 418.8c72-16 107.4-66.9 161.1-68.9-.3-2.5-1.8-6.8-3-9.5 104.3 1 161.2 65.2 183.9 136.4 61.3-201.2-131.3-327.7-357.6-172.2-56.8 42.8 15.6 114.2 15.6 114.2z"/><path class="st3" d="M1631.1 282.9c-3.8-5.2-7.2-6.9-10.2-8.3 45.7-34.5 99-28 153 13.4-58.2-63.1-170.1-76.6-295.9-3.1-3.4 5.4-6.7 11-10.1 16.7-34.8 47.5-30.5 79.5-21.1 97.9 8.4 11.6 16 19.2 16 19.2 72.3-26.9 123.2-96.7 168.3-135.8z"/><radialGradient id="SVGID_7_" cx="1695.629" cy="264.918" r="144.188" gradientUnits="userSpaceOnUse"><stop offset="0" stop-color="#FF6E29"/><stop offset="1" stop-color="#F1521F"/></radialGradient><path class="st9" d="M1462.9 418.8c71.3-29.4 116.3-98.8 160.1-139.4-2-3.2-7.2-6.5-10.2-7.7 38.7-29.6 102.8-38.8 184.3 25.2-54-164.2-220.6-207.7-333.1 4.8-56.6 82.9-1.1 117.1-1.1 117.1z"/><linearGradient id="SVGID_8_" gradientUnits="userSpaceOnUse" x1="1852.306" y1="387.045" x2="1568.306" y2="295.045"><stop offset="0" stop-color="#FFF"/><stop offset="1" stop-color="#FFF" stop-opacity="0"/></linearGradient><path class="st10" d="M1797 296.8c-74.9-68.7-154.8-56.2-192.2-25 3 1.1 8.4 4.2 10.6 7.3-26 26.2-52.1 63.5-84.7 95.7 35.7-31.6 64.3-69.5 92.4-95.5-2-3.2-7.2-6.5-10.2-7.7 38.5-29.6 102.5-38.7 184.1 25.2z"/><path class="st11" d="M1652.5 168.6c-1.4-1.6-14.3-3.3-18.6-3.1 14-5.2 21.7-4.7 38.1-4.5-67.1-16.2-145.9 23-208.1 140.5-17.1 25.1-23.9 45.7-25.2 62.3 5.1 20.2 12.7 39.6 24.1 54.8 131.6-56.6 51.1-220 189.7-250z"/><radialGradient id="SVGID_9_" cx="1616.133" cy="209.421" r="141.065" gradientUnits="userSpaceOnUse"><stop offset="0" stop-color="#FF8129"/><stop offset="1" stop-color="#FF5929"/></radialGradient><path class="st12" d="M1706.1 159.7c-28.8-7.1-62.6-6.6-88.4 3.9 4.3-.3 9.2 1.3 10.7 2.8-116.7 36.8-35.8 191.7-165.6 252.4-44.8-56-37.5-172.7-37.5-172.7s88.1-258.7 280.8-86.4z"/><path class="st11" d="M1515 203.1c-6.2 2.2-10.7 5.4-12.7 7.6-5.1-41.5 2.3-76 54.6-107.6-89.6 19.5-131.7 143-131.7 143s-.4 6.3-.4 16.6c26.1 35.7 38 156.1 38 156.1 86.4-45.3 65.7-149 52.2-215.7z"/><radialGradient id="SVGID_10_" cx="1538.137" cy="153.924" r="142.524" gradientUnits="userSpaceOnUse"><stop offset="0" stop-color="#FF8829"/><stop offset="1" stop-color="#F76229"/></radialGradient><path class="st13" d="M1462.9 418.8c85.2-47.4 62.7-144.1 47.5-210.4-6.1 2.3-10.6 5.7-12.5 7.9-7-46.9 1.4-93.5 74.3-128.2 0 0-225-73.4-170.2 166.8 38.8-13.2 60.9 163.9 60.9 163.9z"/><path class="st14" d="M1418.2 108.6c-2.4 28.4 6.7 36.4 6.7 36.4s29.5 4 32.4 58.5c41.7 24.5 47 75.5 47 94.5 4.3-2 8-8.1 8-8.1 2.3 72.7-24.3 76.1-39.1 134.3-47.7-45.7-91.1-277.4-55-315.6z"/><radialGradient id="SVGID_11_" cx="1232.449" cy="254.224" r="234" gradientUnits="userSpaceOnUse"><stop offset="0" stop-color="#FF8829"/><stop offset="1" stop-color="#FF6C29"/></radialGradient><path class="st15" d="M1189.1 449c4.7 4 22.7 37.3 58.7 44 36 6.7 42-4 42-4s9.3 9.1 28 6.2 19.3-25 38.7-31.3c5.3 17-11.3 55.8-11.3 55.8s35.3-16.2 52.7-55.8c3.9 30.4-7.3 80.1-7.3 80.1s51.5-49.1 48.1-102.4c9.3 18.9 9.3 62 9.3 62 26.5-43.1 22.6-92.7 39-134.4 23.2-58.8 16.2-132.1-44.1-169.3 12.4-36.7-10.2-50.3-22.1-51.8-7.9-33.6.8-57 3.6-63.2-145.6 31-254.8 160.3-254.8 315.2 0 11.4.6 22.6 1.8 33.7 5.9 9.9 14.8 12.7 17.7 15.2z"/><linearGradient id="SVGID_12_" gradientUnits="userSpaceOnUse" x1="1559.613" y1="425.39" x2="1215.304" y2="215.201"><stop offset="0" stop-color="#BD082D"/><stop offset="1" stop-color="#FFFFF3" stop-opacity=".19"/></linearGradient><path class="st16" d="M1393.4 281c-3.5 64.7-45.5 81.6-75.4 83.3-90.8 5.3-139.5 104.7-64.4 129.6 30.8 4.5 36.2-5 36.2-5s9.3 9.1 28 6.2 19.3-25 38.7-31.3c5.3 17-11.3 55.8-11.3 55.8s35.3-16.2 52.7-55.8c3.9 30.4-7.3 80.1-7.3 80.1s51.5-49.1 48.1-102.4c9.3 18.9 9.3 62 9.3 62 26.5-43.1 22.6-92.7 39-134.4 23.2-58.8 16.2-132.1-44.1-169.3 12.4-36.7-10.2-50.3-22.1-51.8-7.9-33.6.8-57 3.6-63.2-100 85.5-27.2 124-31 196.2z"/><radialGradient id="SVGID_13_" cx="1162.609" cy="434.977" r="82.783" gradientUnits="userSpaceOnUse"><stop offset="0" stop-color="#E63223"/><stop offset="1" stop-color="#D51E2D"/></radialGradient><path class="st17" d="M1214 426c2-17.5-12.7-18.3-25.9-10.8-9.8 5.6-17.5 13.1-17 18.7 6.3 9.8 15.1 12.6 18.1 15.1 4.7 4 22.7 37.3 58.7 44-38.5-14.2-35.9-49.5-33.9-67z"/><linearGradient id="SVGID_14_" gradientUnits="userSpaceOnUse" x1="1191.658" y1="-62.121" x2="1351.295" y2="188.737"><stop offset="0" stop-color="#FFF"/><stop offset="1" stop-color="#FFF" stop-opacity="0"/></linearGradient><path class="st18" d="M1252.8 201.4s100.8-55.1 157.3-53.4c-23.2-12.7-44.3-14.7-44.3-14.7s24.3-22.5 35.9-32.8c-98.4 17.1-148.9 100.9-148.9 100.9z"/><linearGradient id="SVGID_15_" gradientUnits="userSpaceOnUse" x1="1399.519" y1="157.111" x2="1231.519" y2="481.778"><stop offset="0" stop-color="#BD082D"/><stop offset="1" stop-color="#FFFFF3" stop-opacity=".19"/></linearGradient><path class="st19" d="M1319.8 179.5c-74.5 25.5-91.5 80.1-91.5 80.1s8.5-8.1 27-15.1c-34 26.5-40.5 66.3-40.5 66.3s12.5-8.3 23-12.3c-28.5 38.5-23 86.5-23 86.5s25-21.1 33.5-24.1c-11 35 18.8 72.6 18.8 72.6s19.2-30.7 28.7-37.6c7.3 14.6 4.5 29.1 4.5 29.1s32-22 35.5-40c7.5 13.6 7 29 7 29s42.7-19.5 50.6-81.5c9.8 21 26.1 16 26.1 16-6-29.5 13.3-95.9-14.2-142-20.1-33.6-85.5-27-85.5-27z"/><linearGradient id="SVGID_16_" gradientUnits="userSpaceOnUse" x1="1391.484" y1="125.733" x2="1223.484" y2="450.399"><stop offset="0" stop-color="#BD082D"/><stop offset="1" stop-color="#FFFFF3" stop-opacity=".19"/></linearGradient><path class="st20" d="M1339.3 190.3c-53 1.7-67.5 37.6-67.5 37.6s8.5-2.5 17.5 0c-25.9 9-36.5 44-36.5 44s7.5-2.5 13.5 0c-7.5 16.2-5 43.2-5 43.2s8-1.6 13-4.4c-2 16.1 2 31.2 2 31.2s37.5-15.1 43-26.8c4 9.3 4 15.3 4 15.3s35-21.5 36.5-49c4 13.4 10.8 13.4 10.8 13.4s25.2-38.4 6.2-88.4-37.5-16.1-37.5-16.1z"/><linearGradient id="SVGID_17_" gradientUnits="userSpaceOnUse" x1="1380.497" y1="138.421" x2="1199.018" y2="489.135"><stop offset="0" stop-color="#BD082D"/><stop offset="1" stop-color="#FFFFF3" stop-opacity=".19"/></linearGradient><path class="st21" d="M1345.1 213.3c-10.9-8.5-33.8 1-39.6 21.7-2.1 7.5-.6 12.4 5.5 16.4 20.4 13.4 59.6-.6 34.1-38.1z"/><path class="st22" d="M1312.9 240.1c2.9 5.4 8.9 9 15.6 8.4 7.3-.7 13.4-6.4 14.4-13.7.9-6.5-2.2-12.4-7.1-15.6-2.2-1.4-17.8 2.6-23 17.8-.5.9-.4 2.1.1 3.1z"/><circle class="st23" cx="1329.4" cy="227.2" r="4.8"/><linearGradient id="SVGID_18_" gradientUnits="userSpaceOnUse" x1="1115.813" y1="184.692" x2="1290.813" y2="256.692"><stop offset="0" stop-color="#FFF"/><stop offset="1" stop-color="#FFF" stop-opacity="0"/></linearGradient><path class="st24" d="M1169.3 400.2c0 11.4.6 22.6 1.8 33.7-4.2-53.1 30.2-95.4 33.2-118.2 22-122.2 67-179.3 219.8-230.8-145.6 31.1-254.8 160.5-254.8 315.3z"/><path class="st25" d="M1210 473.2c-4.7-6.4-9.9-18.6-10.1-35.1-.2-16.5-23.5-3.8-10.8 10.8 2.6 2.3 9.3 13.6 20.9 24.3z"/><linearGradient id="SVGID_19_" gradientUnits="userSpaceOnUse" x1="1452.613" y1="599.742" x2="1401.28" y2="275.742"><stop offset="0" stop-color="#BD082D"/><stop offset="1" stop-color="#FFFFF3" stop-opacity=".19"/></linearGradient><path class="st26" d="M1442.7 200c56.4 43.7 69.6 121.7 6.1 195.9l-8.4-15.6s-10.6 28.8-26.6 50c0-10.7-6.7-13.1-6.7-13.1s-23.3 35.5-50.7 46.6c5.3 17-11.3 55.8-11.3 55.8s35.3-16.2 52.7-55.8c3.9 30.4-7.3 80.1-7.3 80.1s51.5-49.1 48.1-102.4c9.3 18.9 9.3 62 9.3 62 26.5-43.1 22.6-92.7 39-134.4 23.1-58.6 16.1-131.9-44.2-169.1z"/><path class="st25" d="M1308 473c12.8-10 40.7-32.5 23.7-36.5s-17.5 13-28.7 31.5c-10.2 16.8-30.2 27.8-49.5 26 30.8 4.5 36.2-5 36.2-5s7.7 7.4 23 6.7c-14.4-.8-17.4-12.7-4.7-22.7z"/><linearGradient id="SVGID_20_" gradientUnits="userSpaceOnUse" x1="1427.388" y1="124.713" x2="1265.388" y2="263.713"><stop offset="0" stop-color="#BD082D"/><stop offset="1" stop-color="#FFFFF3" stop-opacity=".19"/></linearGradient><path class="st27" d="M1433 200c-42.2 46-138.8 14.8-160.7-8.6-21.9-23.4 19.5 3.9 68.3-12.3S1433 200 1433 200z"/><linearGradient id="SVGID_21_" gradientUnits="userSpaceOnUse" x1="1453.62" y1="175.164" x2="1519.12" y2="388.164"><stop offset="0" stop-color="#BD082D"/><stop offset="1" stop-color="#FFFFF3" stop-opacity=".19"/></linearGradient><path class="st28" d="M1423.7 206.4c-4.9 19.5-2.8 62.4 11.5 87 .9 1.5 2.1-.7 2.8-3.8 10.5 14.9 29.1 32.4 49.5 41.5 0 0 0-2.8-.1-4.7 17.5 6.4 42.6 13.6 65.2 9.5-4.8-103.9-69-134.3-128.9-129.5z"/><radialGradient id="SVGID_22_" cx="1429.116" cy="334" r="131.015" gradientUnits="userSpaceOnUse"><stop offset="0" stop-color="#E63223"/><stop offset="1" stop-color="#D51E2D"/></radialGradient><path class="st29" d="M1423.5 206.4c-4.5 17.2-2.6 54.9 10.6 76.5.8 1.3 1.9-.6 2.6-3.4 9.7 13.1 26.9 28.5 45.8 36.5v-4.2c16.2 5.6 39.4 12 60.3 8.3-12-82-63.9-118-119.3-113.7z"/><linearGradient id="SVGID_23_" gradientUnits="userSpaceOnUse" x1="1525.704" y1="179.655" x2="1465.704" y2="297.655"><stop offset="0" stop-color="#BD082D"/><stop offset="1" stop-color="#FFFFF3" stop-opacity=".19"/></linearGradient><path class="st30" d="M1423.5 206.4c-3.7 14.1-3.1 42.1 4.6 63.6-6-18 4.8-39.9 4.8-39.9s7.2 22 27.2 41.7c-.7-15.3 5.3-23.2 5.3-23.2s24 8.5 36.3 42.2l4.3-13.7s18.8 39.7 36.7 43.2c-4.2-21.7-10-40.5-17.7-56.4-22.4-42.2-61-60.6-101.5-57.5z"/><radialGradient id="SVGID_24_" cx="1529.038" cy="269.777" r="149.461" gradientTransform="rotate(-.8 -487.18 285.74)" gradientUnits="userSpaceOnUse"><stop offset="0" stop-color="#FF6E29"/><stop offset="1" stop-color="#F1521F"/></radialGradient><path class="st31" d="M1421.2 206.3c-.7 30 93.3 1 116.6 103.2 11.9 52.1 15.7-82.5-66.6-117.8-67.6-28.8-49.8 4.3-50 14.6z"/><radialGradient id="SVGID_25_" cx="1418" cy="176" r="140.014" gradientUnits="userSpaceOnUse"><stop offset="0" stop-color="#F15A29"/><stop offset="1" stop-color="#FF9829"/></radialGradient><path class="st32" d="M1412.3 152.8c-29 15.2-83.4-7.4-92.8-72.1-.6-3.9-5.8-4.6-7.4-1-32.7 76 28.1 168.5 107.7 130 39.7-19.2 13.2-67.8-7.5-56.9z"/><linearGradient id="SVGID_26_" gradientUnits="userSpaceOnUse" x1="1272.616" y1="168.547" x2="1351.616" y2="147.547"><stop offset="0" stop-color="#FFF"/><stop offset="1" stop-color="#FFF" stop-opacity="0"/></linearGradient><path class="st33" d="M1316.1 79.6c.3-.8.9-1.4 1.5-1.8-1.8-1.1-4.5-.6-5.5 1.8-27.7 64.3 11.7 140.5 72.7 139-58.7-1.8-95.8-76-68.7-139z"/><linearGradient id="SVGID_27_" gradientUnits="userSpaceOnUse" x1="1418.59" y1="88.566" x2="1310.923" y2="223.566"><stop offset="0" stop-color="#BD082D"/><stop offset="1" stop-color="#FFFFF3" stop-opacity=".19"/></linearGradient><path class="st34" d="M1422.4 182.7c23.7-4.9 9.3-29.9-4-31.5-2.1 0-4.2.5-6.2 1.6-25.8 13.6-71.7-2.9-88.1-52.3 24 75.2 74.6 87.1 98.3 82.2z"/><g><radialGradient id="SVGID_28_" cx="360.823" cy="-142.677" r="162.186" gradientTransform="matrix(.104 0 0 .104 -12.532 62.73)" gradientUnits="userSpaceOnUse"><stop offset="0" stop-color="#702200"/><stop offset="1" stop-color="#5E0500"/></radialGradient><path class="st35" d="M33.3 37.9C47.4 43 30.2 63.7 8.7 55.1c9.1 14.3 24.7 11.6 28.6 6.9 3.8-4.7 11.7-23-1.7-29.2-1.9 3.6-2.3 5.1-2.3 5.1z"/><radialGradient id="SVGID_29_" cx="446.908" cy="-92.517" r="157.352" gradientTransform="matrix(.104 0 0 .104 -12.532 62.73)" gradientUnits="userSpaceOnUse"><stop offset="0" stop-color="#741600"/><stop offset="1" stop-color="#5D0400"/></radialGradient><path class="st36" d="M33.3 37.9c16.1.7 9.4 25.6-9.6 29.1 13.6 4.9 21.7 2.1 26.9-10.5 5.2-12.6-6.8-23-16-23.8-9.1-.8-1.3 5.2-1.3 5.2z"/><radialGradient id="SVGID_30_" cx="531.365" cy="-91.997" r="161.626" gradientTransform="matrix(.104 0 0 .104 -12.532 62.73)" gradientUnits="userSpaceOnUse"><stop offset="0" stop-color="#741B00"/><stop offset="1" stop-color="#6D1400"/></radialGradient><path class="st37" d="M33.3 37.9c15.6-1.1 21.8 15.9 10.3 30.7 26.2-5.6 18.9-38-9.4-36.7-9.6.8-.9 6-.9 6z"/><radialGradient id="SVGID_31_" cx="624.234" cy="-142.843" r="163.822" gradientTransform="matrix(.104 0 0 .104 -12.532 62.73)" gradientUnits="userSpaceOnUse"><stop offset="0" stop-color="#7B2200"/><stop offset="1" stop-color="#751C00"/></radialGradient><path class="st38" d="M33.3 37.9c21.8-4.4 29.8 8.2 25.5 22.9C80.7 39.5 56.6 22.7 31.9 29c-.4 3.6 1.4 8.9 1.4 8.9z"/><radialGradient id="SVGID_32_" cx="656.767" cy="-243.235" r="162.441" gradientTransform="matrix(.104 0 0 .104 -12.532 62.73)" gradientUnits="userSpaceOnUse"><stop offset="0" stop-color="#832A00"/><stop offset="1" stop-color="#802700"/></radialGradient><path class="st39" d="M33.3 37.9c7.5-1.7 11-7 16.6-7.2 10.9-.4 16.5 5.5 18.9 13.2C75.2 23 55.2 9.9 31.7 26c-5.9 4.5 1.6 11.9 1.6 11.9z"/><radialGradient id="SVGID_33_" cx="652.151" cy="-348.563" r="156.801" gradientTransform="matrix(.104 0 0 .104 -12.532 62.73)" gradientUnits="userSpaceOnUse"><stop offset="0" stop-color="#943B00"/><stop offset="1" stop-color="#8F3600"/></radialGradient><path class="st40" d="M33.3 37.9C47.6 32 47.6 10.6 68 25.3c-5.6-17.1-22.9-21.6-34.6.5-5.9 8.6-.1 12.1-.1 12.1z"/><radialGradient id="SVGID_34_" cx="602.853" cy="-425.012" r="150.152" gradientTransform="matrix(.104 0 0 .104 -12.532 62.73)" gradientUnits="userSpaceOnUse"><stop offset="0" stop-color="#A74E00"/><stop offset="1" stop-color="#A34A00"/></radialGradient><path class="st41" d="M58.6 11c-25.7-3.2-8.7 19.2-25.3 26.9-4.7-5.8-3.9-17.9-3.9-17.9s9.1-26.8 29.2-9z"/><radialGradient id="SVGID_35_" cx="502.44" cy="-471.889" r="136.203" gradientTransform="matrix(.104 0 0 .104 -12.532 62.73)" gradientUnits="userSpaceOnUse"><stop offset="0" stop-color="#BB6200"/><stop offset="1" stop-color="#B25900"/></radialGradient><path class="st42" d="M33.3 37.9c16.2-9-8-25.1 11.4-34.3 0 0-23.4-7.6-17.7 17.3 4-1.3 6.3 17 6.3 17z"/><linearGradient id="SVGID_36_" gradientUnits="userSpaceOnUse" x1="7.747" y1="51.033" x2="39.268" y2="47.398"><stop offset="0" stop-color="#FBB040"/><stop offset="1" stop-color="#FFF" stop-opacity="0"/></linearGradient><path class="st43" d="M36.4 39.7c7.9 6.8-8.2 23.2-27.6 15.4.1.2.2.4.4.6 19.6 7.6 35.8-9.4 27.2-16z"/><linearGradient id="SVGID_37_" gradientUnits="userSpaceOnUse" x1="23.717" y1="55.9" x2="42.423" y2="55.9"><stop offset="0" stop-color="#FBB040"/><stop offset="1" stop-color="#FFF" stop-opacity="0"/></linearGradient><path class="st44" d="M42.1 44.4c1.9 7.8-5.3 20.2-18.3 22.7.3.1.7.2 1 .3 12.5-2.9 19.3-15.3 17.3-23z"/><linearGradient id="SVGID_38_" gradientUnits="userSpaceOnUse" x1="43.586" y1="54.674" x2="49.843" y2="54.674"><stop offset="0" stop-color="#FBB040"/><stop offset="1" stop-color="#FFF" stop-opacity="0"/></linearGradient><path class="st45" d="M44.4 68.5c8-10.8 6.7-22.8-.6-27.9 7.2 5.3 8.2 17.3-.2 28 .2 0 .5 0 .8-.1z"/><linearGradient id="SVGID_39_" gradientUnits="userSpaceOnUse" x1="61.1" y1="65.307" x2="48.17" y2="36.954"><stop offset="0" stop-color="#FBB040"/><stop offset="1" stop-color="#FFF" stop-opacity="0"/></linearGradient><path class="st46" d="M59.4 60.2c3.4-12.4-2.2-23.3-17.6-23.2 15.4.1 20.7 11.2 17.1 23.7l.5-.5z"/><linearGradient id="SVGID_40_" gradientUnits="userSpaceOnUse" x1="68.56" y1="46.566" x2="48.481" y2="32.095"><stop offset="0" stop-color="#FBB040"/><stop offset="1" stop-color="#FFF" stop-opacity="0"/></linearGradient><path class="st47" d="M49.8 30.5c-4.1.3-9.1 4.2-9.1 4.2 3.2-1.9 5.8-3.9 9.1-4 10.9-.4 16.5 5.5 18.9 13.2.1-.2.1-.4.2-.6-2.5-7.4-8.2-13.2-19.1-12.8z"/><linearGradient id="SVGID_41_" gradientUnits="userSpaceOnUse" x1="97.097" y1="21" x2="46.899" y2="27.231"><stop offset="0" stop-color="#FBB040"/><stop offset="1" stop-color="#FFF" stop-opacity="0"/></linearGradient><path class="st48" d="M38.8 34.5c9.3-8 11.8-21.8 29.2-9.2-.1-.2-.2-.5-.2-.7-17.5-12.1-19.8 1.9-29 9.9z"/><linearGradient id="SVGID_42_" gradientUnits="userSpaceOnUse" x1="71.681" y1="4.866" x2="41.563" y2="22.661"><stop offset="0" stop-color="#FBB040"/><stop offset="1" stop-color="#FFF" stop-opacity="0"/></linearGradient><path class="st49" d="M58.1 10.6c-19.9-2.1-13.7 11-17.9 20.5 4.2-9.5-1.6-22.6 18.4-20.1-.2-.1-.4-.2-.5-.4z"/><linearGradient id="SVGID_43_" gradientUnits="userSpaceOnUse" x1="53.078" y1="-15.42" x2="37.776" y2="19.407"><stop offset="0" stop-color="#FBB040"/><stop offset="1" stop-color="#FFF" stop-opacity="0"/></linearGradient><path class="st50" d="M39.1 27c-1-8.1-7.4-17.3 5.5-23.4 0 0-.2-.1-.6-.2-12.4 6.3-5.8 15.9-4.9 23.6z"/><radialGradient id="SVGID_44_" cx="393.514" cy="-285.673" r="256.675" gradientTransform="matrix(.104 0 0 .104 -12.532 62.73)" gradientUnits="userSpaceOnUse"><stop offset="0" stop-color="#6A0400"/><stop offset="1" stop-color="#FFDE5E" stop-opacity="0"/></radialGradient><path class="st51" d="M68.8 44c2.9-9.5.4-17.3-5.4-21.6 1.4.7 3 1.7 4.6 2.9-3-9-9.2-14.6-16.2-14.5 1.8-.2 4.1-.1 6.8.2-7.3-6.5-13.2-7.1-17.7-5.2 1-.8 2.3-1.6 3.8-2.3 0 0-12.5-4.1-17 3.5.3-1.2-13.4 3.5-7.3 11.7 2.6 3.5 11.4 18.9 12.8 19.1h.1C47.4 43 30.2 63.7 8.7 55.1c5.5 8.7 13.5 11.1 19.7 10.6-1.5.6-3.1 1.1-4.8 1.4 11 3.9 18.3 2.9 23.5-4.3-.9 2-2.1 4-3.7 5.9C55 66.2 60 58.7 59.8 51.1c.3 3 0 6.3-1 9.7 10.8-10.5 10.4-20 4.2-26.1 2.8 2.4 4.6 5.6 5.8 9.3z"/><path class="st52" d="M10.4 35.5c2.1 2.2 3.2 2.6 3.7 2.7.4.1.3-.1.1-.6s-.3-1.5.2-1.8 1.3-.5 1.7-.5c.5-.1.2-.5.4-1.1.2-.6 1.3-2.2 2.6-2.4 1.3-.2 3-2.5 4.8-.4 1.8 2.2-.2 4.5-1.7 4.7-1.4.2-1.2.8-2.3 1.4-1.1.7-1.4-.3-1.7-.1s-.2.9-.7 1.1c-.4.2-1.7.2-2.2.1s-.8-.1-.5.3 1.7 1.9 2.1 1.9c.4-.1 11.5-5.9 11.5-5.9l-6.3-9.2-11.7 9.8z"/><circle class="st53" cx="36.3" cy="36" r="33.5"/><radialGradient id="SVGID_45_" cx="157.185" cy="-407.959" r="321.915" gradientTransform="matrix(.104 0 0 .104 -12.532 62.73)" gradientUnits="userSpaceOnUse"><stop offset="0" stop-color="#DA8110"/><stop offset="1" stop-color="#AA4C00"/></radialGradient><path class="st54" d="M27.9 4.5c-9.1 1.9-15 6.4-16.7 8.5s.8 4 0 4.7c-2.5 2.1-9 8.1-9.2 10.4s5.7 7.5 7.6 8.1c1.9.6 5.1.1 7.6-4s6.1-2.5 7.2-1.3c1.1 1.3 2.5 5.2-4.5 7-7 1.8-3.5 5.7-2 6.4 1.2.6 4-.4 6.2-3.4.3-.4.6-.4.9-.4 4.9.4 13.8-3.3 13.3-13.2-.4-7.9-4.6-9.2-3.7-18.1.7-6.9-6.7-4.7-6.7-4.7z"/><linearGradient id="SVGID_46_" gradientUnits="userSpaceOnUse" x1="48.595" y1="29.941" x2="32.497" y2="25.579"><stop offset="0" stop-color="#FFF"/><stop offset="1" stop-color="#FFF" stop-opacity="0"/></linearGradient><path class="st55" d="M38.2 27.3c-.4-7.9-4.6-9.2-3.7-18.1-1.5 8.7 2.6 10.1 3 18 .5 9.2-7.1 13.2-12.1 13.3 5 .2 13.3-3.5 12.8-13.2z"/><linearGradient id="SVGID_47_" gradientUnits="userSpaceOnUse" x1="419.659" y1="419.239" x2="408.281" y2="426.59" gradientTransform="rotate(-8.92 -2365.64 2786.71)"><stop offset="0" stop-color="#933A00"/><stop offset="1" stop-color="#D67D0C" stop-opacity="0"/></linearGradient><path class="st56" d="M18 16.2c.7.4 1.1 1.2.6 1.8-1.4 1.4-2.4 1.5-3 1.4s-3 1.5-3.6 1.9c-.6.4-.7.1-.1-.3s3-2 2.8-2.4-.6-1.9-.4-2.5c1.4.9 3.7.1 3.7.1z"/><radialGradient id="SVGID_48_" cx="232.366" cy="-490.978" r="306.366" gradientTransform="matrix(.104 0 0 .104 -12.532 62.73)" gradientUnits="userSpaceOnUse"><stop offset="0" stop-color="#AC5300"/><stop offset="1" stop-color="#FFF" stop-opacity=".19"/></radialGradient><path class="st57" d="M9.8 27.2c1.6-2.8 3.8-3.8 5.9-2.3s6 2.5 9.8-.8-1.1-7 1.5-9.2 8.2 2.1 9.4 8.7c1.1 6.6-5.4 10.2-11.1 6.6s-7.5-.7-8.7.8c-3 4.1-8.8-.4-6.8-3.8z"/><radialGradient id="SVGID_49_" cx="747.775" cy="9.917" r="16.7" gradientTransform="rotate(-9.4 146.076 402.375) scale(.104)" gradientUnits="userSpaceOnUse"><stop offset="0" stop-color="#741B00"/><stop offset="1" stop-color="#6D1400"/></radialGradient><path class="st58" d="M18 16.2c-2 0-3.6-.3-3.6-.3s-.2.4.4.7c0 .7.2 1.5.8 2.1 2.5-.1 3.3-1.8 2.4-2.5z"/><path class="st59" d="M15 17c.1.7.6 1.2 1.2 1.1s.9-.7.8-1.4c0-.2-.1-.3-.2-.5-.7 0-1.2-.1-1.7-.1-.1.2-.2.6-.1.9z"/><ellipse transform="rotate(-8.92 16.39 16.732)" class="st60" cx="16.4" cy="16.7" rx=".4" ry=".4"/><radialGradient id="SVGID_50_" cx="730.842" cy="191.007" r="75.359" gradientTransform="rotate(-9.4 146.076 402.375) scale(.104)" gradientUnits="userSpaceOnUse"><stop offset="0" stop-color="#A74E00"/><stop offset="1" stop-color="#A34A00"/></radialGradient><path class="st61" d="M21.8 37.8c3.5-1 6.7-4.9 2.4-7.9-3.7-2.6-6.1.3-7.5 2.5-2.9 4.3-5.9 4.6-8.2 3.3.5.3.9.5 1.2.6 1.9.6 5.1.1 7.6-4s6.1-2.5 7.2-1.3c1.1 1.3 2.5 5.2-4.5 7-4.6 1.2-4.6 3.3-3.7 4.7-1.4-3 1.8-3.8 5.5-4.9z"/><path class="st60" d="M16.3 42.7s0 .1.1.1c-.1 0-.1-.1-.1-.1z"/><linearGradient id="SVGID_51_" gradientUnits="userSpaceOnUse" x1="5.58" y1="4.773" x2="18.394" y2="19.297"><stop offset="0" stop-color="#FFF"/><stop offset="1" stop-color="#FFF" stop-opacity="0"/></linearGradient><path class="st62" d="M31.6 5.7c-1-.9-2.3-1.2-3.6-1.2h-.1c-9.1 1.9-15 6.4-16.7 8.5-1.6 2.1.8 4 0 4.7-2.5 2.1-9 8.1-9.2 10.4 0 .6.3 1.4 1 2.3 1.6-1.1 3.3-2.5 4.3-3.5-.1-.9 3-5.6 5.1-7 2.1-1.4 1-2.4.5-3.2-.3-.4-.4-1.5.4-1.5.6 0 2.4.9 4.8.6 3.7-.4-4.8-5.8 8.3-9.9-.1 0 3.5 0 5.2-.2z"/><linearGradient id="SVGID_52_" gradientUnits="userSpaceOnUse" x1=".644" y1="23.569" x2="5.628" y2="29.218"><stop offset="0" stop-color="#FFF"/><stop offset="1" stop-color="#FFF" stop-opacity="0"/></linearGradient><path class="st63" d="M7.3 26.9c-2.4.8-4.1-.2-5 .2-.2.4-.3.7-.3 1 0 .6.3 1.3.8 2.1h.4c1.5-1 3.1-2.3 4.1-3.3z"/><radialGradient id="SVGID_53_" cx="591.567" cy="96.566" r="56.446" gradientTransform="rotate(-9.4 146.076 402.375) scale(.104)" gradientUnits="userSpaceOnUse"><stop offset="0" stop-color="#943B00"/><stop offset="1" stop-color="#8F3600"/></radialGradient><path class="st64" d="M2 28.1c-.1 1.4 2 3.8 4 5.6-1.3-1.6-1-3-.7-3.5.6-.9 2.8-2.6 2-3.3C4 28.6 2.4 27 2 28.1z"/><linearGradient id="SVGID_54_" gradientUnits="userSpaceOnUse" x1="28.825" y1="8.205" x2="38.017" y2="11.373"><stop offset="0" stop-color="#AC5300"/><stop offset="1" stop-color="#FFDE5E" stop-opacity=".19"/></linearGradient><path class="st65" d="M31.6 13.6c6.4.5 8.6-5 2.4-8-1 3.2-2.4 8-2.4 8z"/><radialGradient id="SVGID_55_" cx="-1052.708" cy="-1062.048" r="87.963" gradientTransform="matrix(-.06 -.103 -.094 .054 -135.452 -42.458)" gradientUnits="userSpaceOnUse"><stop offset="0" stop-color="#802700"/><stop offset="1" stop-color="#A44B00"/></radialGradient><path class="st66" d="M35.5 8.2c.1 1.6-1.6 3.7-2.9 4.7-1.1.9-1.8.2-2.2-.9-1.3-3.4-4.3-3.5-4.9-3.2S24.4 7 25.9 6c1.5-1 9.1-4.4 9.6 2.2z"/><radialGradient id="SVGID_56_" cx="448.7" cy="-552.978" r="97.39" gradientTransform="matrix(.104 0 0 .104 -12.532 62.73)" gradientUnits="userSpaceOnUse"><stop offset="0" stop-color="#E7960E"/><stop offset="1" stop-color="#C16808"/></radialGradient><path class="st67" d="M24.5 6.9c2.5-3.5 7.2-4.6 9.8-2 3.5 3.4-.2 8.2-2.3 8.7-.5.1-.6-.2-.3-.3 1-.3 5.6-4.2 2.8-7.4-2.9-3.3-6.7-.3-8.1 2.7-.7 1.4-3.1-.1-1.9-1.7z"/><linearGradient id="SVGID_57_" gradientUnits="userSpaceOnUse" x1="9.976" y1="22.503" x2="17.281" y2="13.155"><stop offset="0" stop-color="#FFF"/><stop offset="1" stop-color="#FFF" stop-opacity="0"/></linearGradient><path class="st68" d="M19.4 14.8c-.1.7-1.5 1.2-3.2 1.1-1.7-.1-3.1-.9-3-1.6.1-.7.5-1.5 3.2-1.1 1.7.3 3.1.8 3 1.6z"/><linearGradient id="SVGID_58_" gradientUnits="userSpaceOnUse" x1="35.697" y1="41.994" x2="19.963" y2="20.6"><stop offset="0" stop-color="#FFF"/><stop offset="1" stop-color="#FFF" stop-opacity="0"/></linearGradient><path class="st69" d="M26.7 21.2c.1 1.8-2 3.9-5.2 4.4-3.2.5-6-.5-6.3-2.3s2.6-5 5.8-5.5 5.5.4 5.7 3.4z"/></g></svg>