<svg id="Layer_1" xmlns="http://www.w3.org/2000/svg" viewBox="0 0 72 72"><style>.st0{fill:#fff;stroke:#000;stroke-width:.97;stroke-miterlimit:10}.st1{fill:#ee4036}.st2{fill:#a87c4f}.st3{fill:#fff}.st4{fill:#f6921e;stroke:#f05a28;stroke-width:.36}.st4,.st5,.st6,.st7{stroke-miterlimit:10}.st5,.st6{fill:none;stroke:#962e3b;stroke-width:.37}.st6{stroke-width:.32}.st7{fill:#b1252f;stroke:#be1e2d;stroke-width:.23}.st8{fill:#c3996b}.st9{fill:#231f20}.st10{fill:#c1b49a}.st11{stroke:#231f20;stroke-width:.8;stroke-miterlimit:10}.st11,.st12,.st13{fill:none;stroke-linecap:round}.st12{stroke-miterlimit:10;stroke:#962e3b;stroke-width:.5}.st13{stroke:#603813;stroke-width:.15;stroke-linejoin:round}.st14,.st15{fill:#231f20;stroke:#231f20;stroke-width:.36;stroke-miterlimit:10}.st15{fill:#a87c4f;stroke-width:.5}.st16{fill:#a87c4f;stroke:#3b2314;stroke-width:.37;stroke-linecap:round;stroke-linejoin:round}.st17,.st18{fill:#a87c4f;stroke:#231f20;stroke-width:.61;stroke-miterlimit:10}.st18{fill:none;stroke-width:.85;stroke-linecap:round}.st19,.st20,.st21,.st22{fill:none;stroke:#603813;stroke-width:.46;stroke-linecap:round;stroke-linejoin:round}.st20,.st21,.st22{fill:#a87c4f;stroke:#3b2314;stroke-width:.58}.st21,.st22{fill:none}.st22{stroke:#603813;stroke-width:.65}.st23{fill:#d0d2d3}.st24{fill:#808184}.st25,.st26{fill:none;stroke-miterlimit:10}.st25{stroke-linecap:round;stroke:#231f20;stroke-width:1.44}.st26{stroke:#6d6e70;stroke-width:.36}</style><title>jalen-10</title><path class="st0" d="M1.9 12.668l30.59-3.595 5.81 49.462L7.71 62.13z"/><path class="st1" d="M56.3 31.2L53.2 33c1.8 2 3.5 4.1 5 6.3H47.1l1.3-1.3-1.4-1-1.5-1c-2.3 2.2-4.3 4.6-6.1 7.2-3.7 5.7-4.9 11.1-3.2 15.6l3.7-.9c-1.4-3.8-.2-7.8 1.6-11.2l5.9 23.5h.8l3.9-6.3.1-.2v6.4h.8l9.2-9.6h-.1c2.1-1.3 3.7-3.4 4.5-5.7 3-9.7-9.7-23.1-10.3-23.6zm6.6 22.9c-.4 1.3-1.1 2.4-2.1 3.3l2.2-8.2c.4 1.6.3 3.3-.1 4.9z"/><path class="st2" d="M39.8 58.1l-2.2.3 1.9 5.3 7.7-2.7z"/><path class="st3" d="M57.5 36.5v-5.1h-.2v4.9l.2.2zM48.3 70.2V39.3h-.2v31.2zM55.8 34.3l.2.2v-3.1h-.2v2.9zM54.4 39.3h-.2V69l.2-.2zM52.9 39.3h-.2v31.3l.2-.2zM51.3 39.3h-.1v26.3l.1-.3zM37.4 58.5h.2v-12l-.2.4v11.6zM43.7 37.8l-.2.2v16.4l.2.7V37.8zM48.3 36.3l-.2-.1v.5l.2-.2v-.2zM39.1 43.8l-.2.2v14.1h.2V43.8zM42 48.3l.2.7v-9.4l-.2.2v8.5zM45.2 36.3l-.2.2v24l.2.7V36.3zM49.8 39.3h-.2V68l.2-.2zM66.7 54.7v-6.3c-.1-.2-.1-.5-.2-.7v7.6c.1-.1.1-.3.1-.4l.1-.2zM54.4 32.7v-1.2h-.2v1l.2.2zM65.1 43.9l-.1-.3V58l.2-.2-.1-13.9zM40.4 49.2l.2-.5v-7.2l-.2.2v7.5zM35.8 57.5c0 .2.1.4.2.6v-7.6c-.1.2-.1.5-.2.7v6.3zM63.6 40.9l-.2-.3v19l.2-.1V40.9zM46.6 66.5l.1.7V36.9l-.1-.2zM57.5 39.3h-.2v26.5l.2-.2zM59 34.3l-.2-.3v30.1l.2-.1V34.3zM55.9 39.3h-.1v28.1l.1-.2zM62.1 55.9l-.2.3V61l.2-.2v-4.9zM60.5 36.3l-.1-.3v26.6l.2-.2V36.3h-.1zM61.9 53.2l.2-.7v-14l-.2-.3v15z"/><path class="st3" d="M57.8 40.9l-4.4 18.6L48.6 41s9.2 0 9.2-.1z"/><circle class="st4" cx="44.7" cy="57.1" r="5"/><path class="st5" d="M46 37.7v6h-2.1l9.7 14"/><path class="st5" d="M60.3 37l.2 6.7h2.1l-9.7 14"/><path class="st6" d="M45 63.5l8.4-1.9 7 1.7"/><path class="st7" d="M53.3 39.5l-3.6 16 3.6 4.7 4.1-4.6z"/><path class="st8" d="M51 52.7l2.4-3.1 2.4 3.1-2.4 3.1zM51.9 46.7l1.4-2.1 1.4 2.1-1.4 2z"/><path class="st9" d="M57.4 55.6l-.5-1.9-3.6 3.9-3.2-3.9-.4 1.8 3.6 4.7z"/><ellipse class="st10" cx="53.4" cy="49.2" rx=".5" ry=".4"/><ellipse class="st10" cx="53.3" cy="43.8" rx=".5" ry=".4"/><path class="st11" d="M51.7 70.2h5.1"/><path class="st12" d="M50.2 63.8h5.5"/><path class="st9" d="M40.5 54.4c-.1.2-.3.4-.4.7 2.9-1.4 6.3-1.4 9.1 0-.1-.2-.2-.5-.4-.7-2.6-1.2-5.6-1.2-8.3 0zM49 59.8l.3-.6c-1.3.6-2.8 1-4.3 1-1.8 0-3.5-.4-5-1.3.1.2.2.5.3.7 1.5.7 3.1 1.1 4.7 1.1 1.4-.1 2.7-.4 4-.9zM39.7 57.1v.2h10v-.2-.2h-10v.2z"/><path class="st2" d="M44.5 60l-5.3-.8V58h5.3z"/><ellipse class="st13" cx="43.4" cy="58.8" rx=".5" ry=".8"/><path class="st3" d="M49.4 34.4h5.8l1-1.8h-8z"/><path class="st14" d="M70.3 20.5c-.4-.3-1-.3-1.5-.1-.6.3-1.1.7-1.5 1.3-.4-3.6-1.8-6.9-4-9.7-4.2-5.7-12.2-6.8-17.8-2.7-1 .8-1.9 1.6-2.7 2.7-2.1 2.7-3.5 5.9-3.9 9.3-.3-.3-.6-.5-.9-.6-.5-.2-1-.2-1.5.1-.8.5-1.2 1.4-1 2.4.1 2.1 1.7 5.8 4 6.9.2.1.3.1.5.2.3 1 .6 2 1 3 .5 1.5.9 2.8 1.1 3.5l.1.3 6.5 5.1h.2c1.4.4 2.9.6 4.4.6 1.4 0 2.7-.1 4.1-.5h.2l7.1-5.7.1-.3c.1-.6.4-1.6.8-2.8.3-1.2.6-2.3.9-3.4.3 0 .6-.1.8-.2 2.3-1 3.9-4.7 4-6.8.1-1.1-.3-2.1-1-2.6z"/><path class="st15" d="M65.4 28.1s2.5-8 4.5-6.9c2 1.2-1.8 10-5.1 7.3"/><path class="st16" d="M67.3 24.8c-.8 1.3-1.3 2.7-1.1 2.9.2.3 1.1-.5 2-1.9s1.3-2.6 1.1-2.9-1.2.6-2 1.9z"/><path class="st15" d="M41.4 28.4s-2.5-8-4.4-6.9c-2 1.1 1.8 10.1 5 7.3"/><path class="st16" d="M39.5 25c.8 1.3 1.3 2.7 1 2.9-.2.3-1.1-.6-2-1.9s-1.3-2.7-1-2.9c.3-.3 1.1.6 2 1.9z"/><path class="st17" d="M63.9 35.9s2.7-9.4 2.7-11.6c0-9.2-6.1-16.7-13.6-16.7S39.4 15 39.4 24.3c0 2.3 3.4 12.1 3.4 12.1l6.2 4.8c1.4.4 2.8.6 4.2.6 1.3 0 2.6-.1 3.9-.5l6.8-5.4z"/><path class="st18" d="M50.4 36.3h5.5"/><ellipse class="st9" cx="47.8" cy="21.3" rx="1.4" ry="1.5"/><ellipse class="st9" cx="58.2" cy="21.3" rx="1.4" ry="1.5"/><path class="st9" d="M62.4 12.2v4.7c1.5.9 2.7 2 3.8 3.3-.5-2.9-1.8-5.7-3.8-8zM43.6 16.9v-4.5c-1.8 2.2-3 4.8-3.6 7.6 1-1.2 2.2-2.2 3.6-3.1zM62.2 11.9c-4.2-5-11.7-5.6-16.7-1.4-.5.4-1 .9-1.4 1.4 0 0 2.1-.6 8.7-.6 3.1-.2 6.3.1 9.4.6zM49.5 30.5c-.7.2-1.5.3-2.2.3l1.4 3.6h8.5l1.6-3.7-.3-.1-9-.1z"/><path class="st3" d="M49.5 30.5l-.4.1v3.7h7.6l.4-3.8h-7.6z"/><path class="st19" d="M46.5 30.6H60"/><path class="st9" d="M55.6 42h-4.8c-1.6 0-3-1-3.6-2.5l-1.1-7.2c-.3-1.5.6-3 2-3.4 1.7-.3 3.3-.4 5-.4 1.8-.1 3.5.1 5.3.4 1.5.4 2.3 1.9 2 3.4l-1.2 7.1c-.6 1.6-2 2.6-3.6 2.6zm-7.4-3.2c.4 1.1 1.4 1.8 2.6 1.8h4.8c1.2 0 2.2-.7 2.7-1.8l1.7-6.7c.3-1-.3-2.1-1.3-2.4-1.8-.3-3.6-.5-5.5-.5-2.7 0-5.2.3-5.2.3-1 .3-1.6 1.3-1.4 2.3l1.6 7z"/><path class="st20" d="M53.3 18.4s-.2 5.7 2.6 6.2c.8.1 1.3.7 1.4 1.4 0 .8-.6 1.4-1.4 1.4-.3 0-.6-.1-.8-.3-.9 0-2.8.1-4.2 0-.2.2-.5.3-.8.3-.8-.1-1.4-.8-1.3-1.6.1-.7.6-1.3 1.3-1.3 2.6 0 2.4-6.1 2.4-6.1"/><path class="st2" d="M50.2 26.6l1.7 1c.7.4 1.6.4 2.3 0l2-1.2"/><path class="st21" d="M50.2 26.6l1.7 1c.7.4 1.6.4 2.3 0l2-1.2"/><path class="st2" d="M45.3 17.8h16v2.8h-16z"/><path class="st22" d="M61.2 20.8H45.1"/><path class="st9" d="M44.4 20c-.1 0-.2-.1-.3-.2V19c0-.3.2-.6.5-.8.8-.4 1.7-.5 2.5-.3l3.9.2c.2 0 .4.2.4.4s0 .7-1.1.5l-3.3-.4c-.8-.1-2.2-.2-2.4.5v.7c.1.2 0 .3-.2.2zM61.8 20.2c.1 0 .2-.1.3-.2v-.8c0-.3-.2-.6-.5-.8-.8-.4-1.7-.6-2.6-.4l-3.9.2c-.2 0-.4.2-.4.4s0 .7 1.1.5l3.3-.4c.8-.1 2.2-.2 2.4.5v.8c0 .1.1.2.3.2z"/><path class="st3" d="M48 32.6l.7 1.7h8.6l.7-1.7z"/><path class="st19" d="M47.3 30.8l2.3 4.9h6.9l2.4-5.1"/><path class="st23" d="M62.4 10.3V5.4c-.1-2-1.6-3.7-3.6-4.1L56.4.9C54 .6 51.6.6 49.3.9l-2.6.5c-2 .4-3.5 2.1-3.6 4.2v4.7c.1 0 19.2-.1 19.3 0z"/><path class="st24" d="M46 5c0-1.5.7-2.9 1.9-3.8l-1.1.2c-2 .4-3.5 2.1-3.6 4.2v4.7c.9-.3 1.9-.6 2.9-.8L46 5z"/><path class="st25" d="M43.1 10.3h26.8"/><path class="st26" d="M43.1 8.6h19.4"/><path class="st9" d="M49.4 6.5h-.2c-.1-.2-.2-.5-.3-.8 0-.1 0-.1-.1 0-.2.3-.4.5-.5.8l-.1.1H48c-.1 0-.1-.1-.1-.1 0-.5-.1-1-.1-1.3 0-.1 0-.1.1-.2.2-.1.3-.1.5-.1.1 0 .1 0 .1.1v.8c.1-.4.5-.8.9-1 .3 0 .5 1 .6 1.5v.1c-.3 0-.5.1-.6.1zM52 6.5c-.1 0-.3.1-.4.1-.1 0-.1 0-.1-.1s-.1-.4-.1-.5c-.2.3-.5.5-.8.6-.3 0-.5-.8-.4-1.5 0-.1 0-.2.1-.2.2-.1.3-.1.5-.1.1 0 .1 0 .1.1 0 .3 0 .7.1 1 .3-.3.5-.6.6-1H51.9l.1.1c0 .3.1.9.1 1.2 0 .1 0 .2-.1.3 0-.1 0 0 0 0zM53.4 7.6c-.3 0-.6-.2-.8-.4 0 0-.1-.1-.1-.2v-.2h.1c.3.2.6.3.9.3.1-.4.2-.8.1-1.2-.1.3-.4.5-.7.6-.3 0-.6-.3-.6-.6 0-.6.5-1.1 1-1.2.2 0 .4.1.5.3h.4s.1 0 .1.1c.1.6.1 1.3 0 1.9-.2.3-.5.6-.9.6zm-.1-2.4c-.1.2-.1.5 0 .6.3-.1.4-.3.5-.6-.2 0-.3-.1-.5 0zM55.7 7.6c-.3 0-.6-.2-.8-.4 0 0-.1-.1-.1-.2v-.2h.1c.3.2.6.3.9.3.2-.4.2-.8.2-1.2-.1.3-.4.6-.8.7-.3 0-.6-.3-.6-.6 0-.6.5-1.1 1-1.2.2 0 .4.1.5.3.1 0 .2 0 .2-.1 0 0 .1 0 .1.1.1.6.1 1.3 0 1.9 0 .3-.3.6-.7.6zm-.1-2.4c-.1.2-.1.5 0 .6.3-.1.4-.3.5-.6-.2 0-.4-.1-.5 0zM57.9 6.5c-.4.1-.9-.2-1-.7.1-.6.5-1 1.1-1.1.3 0 .5.2.6.4-.1.4-.5.6-.9.6.1.3.2.3.3.3.2 0 .5-.1.6-.3v.2c-.1.4-.4.6-.7.6zm.3-1.3c0-.1 0-.1 0 0-.3 0-.4.2-.4.4.2 0 .3-.2.4-.4zM59.8 6c0 .1 0 .1 0 0H60.1c0 .1.1.1.1.2s0 .2-.1.2c-.1.1-.1.1-.2.1-.1.1-.2.1-.3 0-.1 0-.2-.1-.3-.2-.2 0-.3-.2-.3-.4 0-.6 0-1.1.1-1.7 0-.1.1-.1.1-.2.1 0 .3-.1.4-.1.1 0 .1 0 .1.1v.7h.3s.1 0 .1.1 0 .2-.1.3c0 .1-.1.1-.2.1h-.2c.1.3.1.6.2.8zM60.9 6.5h-.2l-.2-.1v-.1c.1 0 .3-.1.3-.3-.2-.2-.3-.4-.4-.6.1-.3.4-.6.8-.7h.2c.1 0 .2.1.2.1v.1c-.2.1-.3.2-.4.4.2.2.4.4.5.6-.1.4-.4.6-.8.6z"/><path class="st11" d="M48.3 70.2h-5"/><path class="st9" d="M7.1 20.8l.2 2c0 .1 0 .2-.1.3.1.1.1.3.2.5v.2c-.1.1-.2.1-.4.2h-.1c-.1 0-.2-.1-.2-.1-.2 0-.3.1-.5.1H6c-.1 0-.2 0-.2-.1l-.3-2.3c0-.2.1-.3.1-.5-.1 0-.1 0-.2-.1l-.3-2.3c0-.1.1-.1.1-.1-.1-.2-.2-.4-.2-.5v-.6s0-.7-.1-1c0-.1.1-.2.2-.3-.1 0-.2-.1-.2-.1-.1-.4-.1-.6-.2-.8V15c0-.3 0-.4.1-.4H5c.2-.1.4 0 .5.1.1-.1.2-.3.3-.3.2-.1.4 0 .5.1 0 .1 0 .2.1.3.1.2 0 .4-.1.5.1 0 .1.1.2.1l.1.5c.1.5.1.9.1 1.4l-.1.2c.1 0 .2.1.2.1l.2 2.2c0 .1-.1.2-.2.2.2.1.3.3.3.5v.3c0-.1 0 0 0 0zm3.1-1.1c.1.7.1 1.5-.1 2.2 0 .2-.1.4-.2.5l-.2.2c0 .1-.1.3-.2.3-.4.4-.8.6-1.4.6-.1 0-.2 0-.3-.1v-.1-.7c.1 0 .1-.1.1-.1-.1 0-.1-.1-.2-.1 0-.1 0-.3.1-.4h.4c.1-.1.2-.2.2-.4 0-.1.1-.3.1-.4.1 0 .2-.1.2-.2-.1-.1-.2-.2-.2-.3v-.5V19.1c-.1-.2-.1-.4 0-.6-.1-.1-.2-.2-.2-.3V18c0-.6-.2-1.1-.4-1.6-.1-.3-.3-.5-.6-.5h-.1c-.1 0-.2 0-.2-.1v-.2c-.1-.2 0-.3.1-.4-.2-.2-.3-.4-.3-.6 0-.1 0-.2.1-.2h.9c.1 0 .2 0 .2.1v.1l.1-.1h.1c.7.4 1.1 1 1.3 1.8.1.2.1.3.1.5 0 .1 0 .2-.1.2.3 0 .3 0 .4.1.1.6.2 1 .2 1.3s.1.7.1 1c0 .1-.1.2-.1.3h.1zM13.2 22V22.9c0 .1 0 .3-.2.4h-.2c-.3 0-.5 0-.5-.2v.1c0 .1-.1.1-.2.2h-.4s-.1 0-.1-.1V23l-.1-.7c0-.1.1-.2.1-.2 0-.1-.1-.1-.1-.1-.1-.3-.2-.7-.2-1.1 0-.2 0-.5-.1-.8l.1-.1-.1-.2-.1-1.1-.1-1.3c0-.1.1-.2.1-.3L11 17v-.1l-.2-1.4c0-.1 0-.2.1-.3l-.1-.2-.2-1c0-.1.1-.2.2-.1h.4c.1 0 .2.1.2.1l.2-.2.3-.1c.1 0 .2 0 .3.1.1.4.1 1 .2 1.7l-.1.2c.1.1.2.3.2.5.1.6.1 1.3.2 2v.1c0 .1-.1.1-.1.2.1.1.2.1.2.2l.3 2.4c0 .1 0 .3-.1.4.1.1.2.3.2.5zm3.3.6c0 .1-.1.2-.3.2h-.3c-.1 0-.3 0-.3-.2 0 .1-.1.2-.3.2H15c-.1 0-.2-.1-.2-.2-.2-.7-.3-1-.3-1.1 0-.2.1-.4.2-.4-.1 0-.2-.1-.3-.2V20c0-.1.1-.1.2-.1-.2-.1-.3-.2-.3-.4-.2-.2-.5-.3-.8-.3-.1 0-.1-.1-.1-.1l-.1-.5c0-.1.1-.2.2-.3h-.2l-.1-.5c0-.1 0-.1.1-.2.3-.1.5-.4.5-.7v-.4s.1-.2.1-.3c-.1 0-.2-.1-.2-.3s-.1-.4-.2-.6c-.1-.1-.2-.1-.4-.1-.1 0-.2 0-.3-.1v-.4c0-.1.1-.2.2-.2l-.2-.2-.1-.5c0-.1.1-.2.4-.2.6-.1 1.1 0 1.6.4v.2s.1 0 .1-.1c.1 0 .1 0 .2.1.3.4.4.9.5 1.4-.1.1-.1.3-.3.4.2 0 .3.1.3.3.1.6-.1 1.1-.4 1.6-.1.1-.3.2-.5.2-.1 0-.1.1-.1.1s0 .1.1.1c.5 0 .9.3 1.1.8 0 .1-.1.1-.1.2h.2c.2.2.2.5.2.7 0 .1-.1.2-.2.2.1 0 .2 0 .2.1v.3l.2 1.1c0 .1-.1.2-.2.2.1 0 .2.1.3.2.1.2.1.4.2.5zM19.8 20c0 .1 0 .1 0 0 0 .1-.1.2-.2.2h-.8l-.1.1c0 .3 0 .6-.1.9 0 .1-.1.2-.2.2l.1.1.1.1c.1.3 0 .5-.1.8-.1 0-.2.1-.4.1H18c-.1 0-.1-.1-.2-.1l-.1.1-.1.1h-.7l-.1-.1c.1-.6.1-1.1.2-1.7 0-.1 0-.2.1-.3v-.2-.1c0-.2 0-.5.1-.7.1-.5.1-.9.1-1.4V18c0-.1 0-.1-.1-.2 0-1.6.1-2.4.3-2.5l-.1-.1-.1-.1c0-.3 0-.9.1-1.5 0-.1 0-.2.1-.2.1.1.1.1.1.2.1.3.2.7.3 1 .1.2.2.4.2.6 0 .1 0 .3-.1.4.1 0 .2.1.2.2 0 .3.1.5.2.7.1.2.1.4.2.6 0 0 0 .3-.1.7 0 .1-.1.1-.1.2l.1.1s.1.1.1.2v.5h.4c.2 0 .3.2.4.6 0 .1-.1.1-.1.2l.2.1.3.3zm2.8 1.4l.1.2c0 .2 0 .3-.1.4-.1 0-.2.1-.3.1H22c-.1 0-.1-.1-.2-.1 0 .1-.1.1-.2.2h-.5l-.1-.1-.1-.2-.7-2.1c0-.1 0-.2.1-.3-.1 0-.3-.1-.3-.2l-.6-1.9v-.3c-.3-.5-.5-1.1-.6-1.7v-.1-.1l-.1-.1V15l-.6-1.8c0-.1 0-.2.1-.2H18.8c.1 0 .2 0 .2.1 0-.1.1-.1.1-.1.1 0 .1-.1.2-.1.2 0 .3 0 .5.1 0 .1.1.2.1.3.1.3.3.8.5 1.7 0 .1 0 .2-.1.3l.1.1c.1.2.3.4.3.6.4 1.2.6 1.8.6 2V18.3c.1 0 .2.1.3.2.2.7.5 1.4.7 2.1v.2c.1.1.2.1.2.3l.1.3zM25 21.6c0 .1 0 .1-.1.1h-.2c-.2 0-.4 0-.5-.2-.1.1-.2.2-.3.2l-.5.3-.1-.2c0-.2 0-.4-.1-.6v-.4c0-.1 0-.2-.1-.3-.1-.1 0-.3.1-.4-.1-.1-.2-.3-.2-.4v-.2-.6c0-.1 0-.2-.1-.4 0-.2-.1-.4-.1-.6s0-.3.1-.4c-.1-.1-.1-.2-.2-.3l-.3-2.5c0-.2 0-.4.1-.6-.1-.1-.2-.2-.2-.3l-.2-1.3v-.1l.7-.1c.1 0 .2 0 .3.1l.1-.1h.5c.1.1.2.2.2.4v.5l-.1.1.1.1.1.1c.2 1.3.3 2.4.4 3.2 0 .1 0 .3-.1.4l.2.2.4 3.3c0 .1 0 .1-.1.1 0 .1.1.1.1.1l.1.8zm1.2-8.5c.1.2 0 .4 0 .6h-.8l-.1-.1c-.1.1-.3.2-.5.2h-.2l-.1-.1v-.4c0-.1 0-.3.1-.4-.1-.1-.2-.2-.2-.3v-.1-.3l.2-.2h.3c.1 0 .3 0 .4.1 0-.1.1-.1.1-.2l.6-.1.1.1v.7l-.1.1c.1.3.2.3.2.4zm.3 2.8v.2c0 .2 0 .4-.1.6.1.1.2.2.2.3.1.2.1.4 0 .6h-.2c-.2 0-.3 0-.5-.1l-.1.1-.4.1c-.1 0-.3 0-.4-.1v-.4c0-.1 0-.2.1-.3-.1-.1-.2-.2-.2-.3V16l.4-.1c.2-.1.4-.1.5 0 .1-.1.2-.2.3-.1h.1c.2 0 .2.1.3.1zM10.2 37.7l.3 3c0 .1 0 .3-.1.4.1.2.2.5.3.7v.4c-.2.1-.4.2-.6.2h-.3c-.1 0-.2-.1-.3-.2-.2.2-.4.4-.7.3h-.5c-.1 0-.3-.1-.3-.2l-.5-3.7c0-.3.1-.6.1-.8-.1 0-.2-.1-.3-.2L6.9 34c0-.1.1-.2.2-.2-.2-.2-.4-.4-.4-.7 0-.1 0-.4-.1-1 0-.6-.1-1.1-.1-1.6 0-.2.1-.3.3-.4-.1-.1-.2-.1-.3-.2-.1-.6-.2-1-.2-1.3v-.4c0-.4 0-.6.2-.7h.4c.3-.1.6 0 .8.2.1-.2.3-.3.5-.4.3-.1.6-.1.8.1v.4c.1.3 0 .6-.2.8.1 0 .2.1.3.2l.1.7c.1.7.2 1.5.2 2.2l-.2.4c.1 0 .3.1.3.2l.4 3.5c-.1.1-.1.2-.2.3.3.2.4.4.4.7v.3c0 .4 0 .5.1.6zm4.9-1.8c.1 1.2.1 2.3-.1 3.5 0 .3-.2.6-.4.8-.1.1-.2.2-.3.4v.2c0 .2-.2.4-.3.5-.6.6-1.3.9-2.2 1-.2.1-.4 0-.4-.2V42v-1.1c.1-.1.2-.1.2-.2-.1 0-.2-.1-.3-.2v-.1c-.1-.2 0-.4.2-.6l.5-.2c.2-.1.3-.3.3-.5s.1-.5.1-.7l.3-.3c-.1-.1-.2-.3-.2-.5v-.7c0-.5-.1-.8-.1-.9l-.1-.5v-.4c-.1-.3 0-.7.2-1-.2-.1-.3-.3-.3-.5v-.1c-.1-.9-.3-1.7-.7-2.5-.1-.4-.5-.7-.9-.8H10.3c-.1 0-.2 0-.3-.1v-.2-.2c-.1-.2 0-.5.2-.7-.3-.2-.4-.6-.4-1 0-.1 0-.3.1-.4H10.2c.4-.1.8-.1 1.2 0 .1 0 .3 0 .3.2v.1c.1-.1.1-.1.2-.1h.2c.8.3 1.5 1.3 2 2.8.1.2.1.5.2.8 0 .1 0 .3-.1.4l.3.3c.2.9.3 1.6.3 2 .1.5.1 1 .1 1.6.1-.2.1 0 .1.1s0 .1.1.1zM21.1 37.5v.2c-.1.1-.2.1-.3.1h-.1l-.7.1h-.6l-.1.2c0 .5-.1 1-.1 1.5-.1.1-.1.3-.3.3l.1.1.1.1c.1.4 0 .9-.1 1.2-.2.1-.4.1-.6.1h-.3c-.1-.1-.2-.1-.3-.2l-.1.2-.2.1h-1c-.1 0-.1-.1-.1-.1.1-.9.2-1.7.2-2.6 0-.2.1-.3.2-.4v-.2c0-.1 0-.1-.1-.2v-.1c0-.4.1-.7.1-1.1.1-.7.1-1.5.1-2.2.1-.2.1-.3.2-.4 0-.1-.1-.2-.1-.3 0-2.6.2-3.9.5-3.9l-.1-.2-.1-.1c0-.5.1-1.3.2-2.4 0-.2 0-.3.1-.4h.1c.1.1.1.2.1.3.1.5.3 1 .5 1.5.1.3.3.6.4 1 0 .2 0 .4-.1.6.2 0 .3.1.4.3 0 .4.1.8.3 1.2.1.3.2.6.3 1 0 0 0 .4-.1 1.1-.1.1-.1.2-.2.3l.1.1c.1.1.1.2.1.2v.9h.6c.3 0 .5.3.6 1-.1.1-.1.2-.1.3l.3.2c0 .2.1.4.2.6zm4.4 2l.1.4c0 .2-.1.5-.2.7-.2.1-.3.1-.5.1h-.3c-.1 0-.2-.1-.3-.2-.1.1-.2.2-.3.2h-.8c-.1-.1-.2-.1-.3-.2l-.1-.2-1.1-3.4v-.1c0-.2 0-.3.2-.5-.2 0-.3-.1-.4-.2l-.9-3v-.4c-.2-.1-.5-1-1-2.7v-.2c0-.1-.1-.1-.2-.1l-.1-.2c-.1-.5-.4-1.4-.9-2.8-.1-.1 0-.3.1-.3h.9c.1 0 .3 0 .4.2 0-.1.1-.2.2-.2.1-.1.2-.1.4-.2.3 0 .5 0 .8.1.1.2.1.4.2.5.2.5.4 1.3.9 2.7 0 .2-.1.3-.1.4s.1.1.2.1c.2.3.4.6.5 1 .6 1.9.9 2.9 1 3v.1l-.1.4c.2 0 .3.2.4.3.4 1.1.7 2.2 1.1 3.3l-.1.3c.2.1.3.2.3.4v.7zM12.4 56.6v.2c.1.4 0 .8-.3 1 .3.1.5.4.5.7v.2c0 .1-.2.2-.3.3-.4 0-.7 0-1-.1-.1-.1-.1-.1-.1-.2v-.2c-.1 0-.1.1-.2.1-.5.1-1-.5-1.4-1.6-.1-.1-.1-.3-.1-.5 0-.1.1-.3.2-.3-.2-.1-.4-.3-.4-.5l-.2-.7c0-.1 0-.3.1-.4l.7-.1c.1.1.3.1.4.3.1-.2.4-.4.6-.4h.3c.1 0 .2 0 .3.1v.1c.1.4.1.8 0 1.1.1 0 .2.1.3.1 0 .4.3.7.6.8zm3.5-1.7c0 .1-.1.2-.2.3.2.1.3.2.3.4v.2c-.1.9-.5 1.7-1.1 2.4-.1 0-.3-.1-.3-.3 0 .2-.1.4-.3.5-.2.2-.5.3-.8.3-.1 0-.1 0-.1-.2v-.4-.4l.2-.2c-.1 0-.2 0-.3-.1 0-.1-.1-.2-.1-.3v-.7c.3-.2.4-.6.4-1V55c0-.2-.1-.5-.3-.7v-.1V53.9s0-.1-.1-.1H13c-.1 0-.1 0-.2-.1-.5-.4-1-.7-1.5-1-.2-.1-.3-.3-.3-.5 0 0-.1 0-.1.1-.3-.1-.6-.2-.9-.5-.3-.2-.5-.4-.7-.7 0-.1.1-.2.2-.2-.3.2-.5 0-.5-.2-.2-.4-.4-.7-.4-1.2 0-.1 0-.2.1-.3 0-.1.1-.1.1-.2s-.1-.1-.1-.2v-.2c-.1-.5 0-1 .1-1.5.1-.3.2-.6.4-.9h.1c.1 0 .1-.1.2-.1 0-.4.4-.8 1.3-1.1h.1c.1 0 .2 0 .2.1s.1.2.1.3c0 .3 0 .5-.2.8l.2.1.1.7c0 .3-.1.5-.2.7 0 .1-.1.3-.1.4v.2c.1.4.1.7 0 1.1.2 0 .3.1.4.2.2.2.4.4.7.6.7.3 1.3.7 2 1.2.1.1.2.2.2.4v.2h.5c.7.8 1.1 1.7 1.2 2.8l-.1.1zm-1-7.3c0 .2 0 .4.1.6v.3c.1.2 0 .4-.2.5h-.1c-.3.1-.6 0-.9-.1 0 .1-.1.2-.2.2l-.7.1c-.1 0-.2 0-.2-.2v-.8c0-.1.1-.1.1-.1-.2-.2-.3-.4-.5-.7-.2-.2-.4-.5-.4-.8v-.3c.1-.1.1-.2.2-.2-.2-.2-.3-.4-.4-.6 0-.3.1-.5.3-.6.4 0 .9 0 1.3.2.3.1.5.2.6.5v.2l.1-.1c.1 0 .2 0 .3.1.3.3.5.7.6 1.2v.6zM20.1 56.9c.2.1.4.3.4.5v.1c0 .3 0 .5-.2.5-.3.1-.7 0-1-.2v-.3l-.5.1c-.8-.5-1.4-1.2-1.6-2.1 0-.2.1-.4.1-.6-.3-.1-.4-.3-.5-.5 0-.2 0-.4-.1-.7s0-.4 0-.5v-.5l-.2-1.5c0-.1.1-.2.2-.3l-.3-.3c-.1-.6-.2-1.2-.3-2 0-.4-.1-.7-.1-1l.2-.2c-.2-.3-.3-.6-.3-1-.1-.5-.1-1.1-.2-1.7 0-.1.2-.2.7-.3.2 0 .4.1.5.2.1-.2.4-.4.7-.3h.4c.1 0 .2.1.2.2v.1c0 .3.1.5.1.6v.6c0 .1-.1.2-.2.2l-.1.1c.1 0 .2.1.3.2l.1.1c0 .3 0 .7.1 1 0 .2.1.5.1.9s.1.6.1.8c.1.2 0 .5-.2.7l.3.3.1.7.3 2.3c-.1.1-.1.3-.2.4.1 0 .2.1.3.2v.1c0 .7.3 1.4.9 1.8.2.2.2.5.2.7 0 .4 0 .6-.3.6zm3.5-6.9l.2 1.7.3 2.2c0 .2-.1.4-.2.6.1.1.1.3.2.5-.1.6-.3 1.2-.5 1.7-.1.3-.4.6-.7.7H22.6l.1.2-.3.3c-.2.1-.5.2-.7.2s-.3-.1-.3-.2v-.1-.6l.3-.3c-.3-.1-.5-.3-.4-.6v-.6c.1-.2.3-.3.4-.5.2-.4.2-.9.1-1.3l.2-.2c-.1-.1-.3-.2-.4-.3l-.3-2.6c0-.1.1-.2.2-.2-.4-.5-.6-1.1-.5-1.7-.1-.6-.1-1.3-.1-1.9l.1-.1c.1-.1.1-.2.2-.2h-.1c-.1 0-.2-.1-.2-.2-.1-.3-.1-.8-.2-1.2-.1-.5 0-.8.1-.9h.2c.3-.1.6 0 .9.2.1-.2.3-.3.5-.3.2-.1.5 0 .7.1.1.4.1.7.1.9.1.3 0 .6-.2.9.1 0 .2 0 .3.1 0 .2 0 .5.1.8v.6c.1.7.1 1.4.2 2.1 0 .1-.1.2-.2.3-.1-.3.1-.2.2-.1zM27.1 45.7c0 .3 0 .5-.1.7.1.1.2.3.3.5l.3 2.7c0 .1-.1.3-.2.4 0 .1.1.2.2.3l.1.2c0 .3.1.6.1 1l.1.8.1.6v.7c0 .2 0 .5-.1.7l.4.2v.6c0 .4.1.9.1 1.6-.1.2-.3.3-.5.3-.2.1-.5 0-.7-.2-.1.2-.2.3-.4.3H26.5c-.2 0-.4-.1-.4-.4v-.3l-.1-.6.2-.3c-.1-.1-.3-.2-.3-.3l-.2-2v-.1c.1 0 .1-.1.2-.1-.1 0-.3-.1-.4-.2l-.1-1-.1-1-.1-1-.1-1 .2-.5c-.1 0-.2-.1-.2-.5l-.2-.8-.2-1-.1-.6c.1-.1.1-.2.2-.4-.1 0-.2-.1-.3-.2v-.5c-.1-.5.1-.7.3-.7h.5c.2 0 .3.1.4.2 0-.2.2-.3.4-.3h.5c.1 0 .2.2.3.6v.4l.1.6v.4l.1.2zM27.5 13.4v.1h-.1c-.1 0-.3 0-.4-.1-.1.1-.2.1-.3.1h-.2c-.1 0-.2-.1-.2-.3s0-.4.1-.5c-.1-.1-.1-.2-.2-.3V12h.1c.1 0 .3 0 .4.1l.1-.2H27.1c.1 0 .2 0 .2.1v.4c0 .1 0 .2-.1.3.1.1.1.2.1.3v.1c.2.1.2.2.2.3zm2.9 6.9c.1.1.2.2.2.4v.3c-.1.1-.2.1-.3.1H30c-.1 0-.2-.1-.2-.1-.1.1-.2.2-.3.2h-.2c-.2 0-.4 0-.4-.2l-.2-1.8c0-.2 0-.4.1-.5-.1 0-.1 0-.2-.1l-.3-2.3c0-.1.1-.1.1-.1-.1-.1-.2-.1-.2-.2l-.1-.8-.1-.8c0-.1 0-.3-.1-.5s-.1-.3-.1-.4c-.1-.5 0-.8.2-.9-.1 0-.1-.1-.2-.1v-.2c0-.3 0-.4.1-.5h.1c.2-.1.4 0 .5.2l.3-.3c.2-.1.4 0 .5.1v.2c.1.2 0 .4-.1.5.1 0 .1.1.2.1 0 .1 0 .3.1.5 0 .4.1.9.1 1.4 0 .1-.1.2-.1.2.1 0 .2.1.2.1L30 17V17.3c.1.1.2.3.2.5v.4l.2 2.1c0-.1 0 0 0 0zm.7-8.8v.5c0 .1 0 .3-.1.4.1.1.2.3.2.4 0 .2 0 .3-.2.4h-.2c-.1 0-.1 0-.2-.1-.1.1-.2.2-.3.1-.2 0-.3 0-.3-.1v-.2-.2c0-.1 0-.2.1-.3-.1-.2-.2-.4-.2-.6 0-.1.1-.2.2-.2h.2l.1.1c.1-.1.2-.2.3-.2h.4zM30.7 35.2l.1.6c.1.6.1 1.2.1 1.8-.1.1-.1.2-.2.2.2 0 .3.1.3.3V39c.1.3.1.7-.1 1h-.2c-.3.1-.5 0-.7-.2-.2.2-.4.3-.6.3H28.8c-.1-.1-.2-.2-.2-.3v-.2l.1-.1c-.2-.2-.2-.4-.3-.7l-.1-.5-.1-.5V37.5c0-.2 0-.4.2-.5-.1-.1-.3-.2-.4-.3v-1.5c0-.1-.1-.2-.1-.3-.4-.9-.6-1.3-.6-1.4v-.1l.1-.2c-.4-.2-.9-1-1.3-2.4 0-.1-.1-.1-.1-.2s0-.3.1-.4c-.2-.1-.3-.2-.4-.3l-.8-2.1v-.1-.2-.2s-.1-.1-.2-.1c-.3-.4-.5-.9-.6-1.4 0-.1.1-.2.2-.2l1-.1.2.2c0-.1.1-.2.1-.3l1.1-.1c.2.2.4.4.4.7l.1.6v.4c.3.2.6.6.6 1 .4 1.1.6 1.6.6 1.7v.5c.3.1.4.3.5.5.2.6.5 1.1.7 1.7 0 .1 0 .3-.1.4h.1c.1 0 .1 0 .2.1.2.6.4 1 .6 1.4l.3.9zm1.9-10.3l-.4 1.5-.3.3c0 .1.1.1.2.2.1.6 0 1.2-.2 1.8-.1.8-.3 1.3-.5 1.3.1.1.1.2.2.3 0 .1-.1.8-.4 2.2 0 .3-.1.6-.2.8l-.2-.2c-.2-.6-.4-1.2-.7-1.8 0-.1.1-.3.1-.5 0-.1-.1-.1-.1-.2-.4-.2-.6-.6-.6-1 0-.3 0-.7.1-1 .1-.5.2-1.1.2-1.6.1-.1.2-.2.3-.2-.1-.1-.2-.3-.2-.5s0-.4.1-.6c0-.3.1-.6.3-.9l.5-.1.3-.1c.2 0 .3.1.4.2l.1-.1c.1-.1.2-.1.3-.1h.7v.3zM29.7 45.2c0 .1 0 .1-.1.2h-.2c-.2.1-.4 0-.5-.1-.1.1-.2.2-.4.2h-.2c-.2 0-.3-.1-.3-.4 0-.2 0-.5.1-.7-.1-.1-.2-.2-.2-.4v-.7l.1-.1c.2 0 .4 0 .6.1l.1-.2h.4c.1 0 .3.1.3.2v.5c0 .2 0 .3-.1.4.1.1.2.3.2.5v.2c.1.1.1.2.2.3zm4 9.9l.3.6v.5c-.1.1-.2.2-.4.2h-.4c-.1 0-.2-.1-.3-.2-.1.1-.3.2-.5.3h-.3c-.3 0-.5 0-.5-.3l-.3-2.5c0-.3.1-.5.2-.8-.1 0-.2 0-.3-.1l-.4-3.2c0-.1.1-.2.2-.2-.1-.1-.2-.2-.3-.4l-.1-1.2-.1-1c0-.2-.1-.4-.1-.7s-.1-.5-.1-.6c-.1-.7 0-1.2.2-1.2h-.1l-.3-.3c0-.1 0-.2-.1-.3-.1-.4 0-.6.2-.7H30.5c.3-.1.5 0 .7.2.1-.2.3-.3.4-.4.2-.1.5-.1.7.1v.4c.1.3 0 .5-.2.7.1 0 .2.1.3.1 0 .2 0 .4.1.7.1.6.1 1.2.1 2 0 .1-.1.2-.2.4.1 0 .3.1.3.2l.4 3.2v.1l-.1.2c.2.2.3.4.3.7v.4l.3 2.7c.2.1.2.3.1.4zm1-12.6v.7c0 .2 0 .4-.1.5l.3.6c0 .3-.1.5-.3.5h-.2c-.1 0-.2 0-.3-.1-.1.2-.3.3-.4.3-.3 0-.4 0-.4-.2v-.3-.3c0-.2 0-.4.1-.5-.2-.3-.3-.6-.3-.9 0-.1.1-.2.3-.2h.5l.2.2c.1-.1.3-.2.5-.3h.1z"/></svg>