<svg viewBox="0 0 72 72" xmlns="http://www.w3.org/2000/svg"><path d="m58.84 21.51 9.68-15.42-21.91 6.32h-21.22l-21.91-6.32 9.68 15.42-8.87 12 8.58 2.15-8.58 8.88 8.58 2.15-8.58 8.87 11.83 2.15h38.71l12.88-2.15-8.58-8.87 8.58-2.15-8.58-8.87 8.58-2.15z" fill="#ffce00"/><path d="m9.6 45.87q-2.58-.76-5-1.66l-.31.32zm57.7-1.76a90.4 90.4 0 0 1 -31.5 5.38 95.13 95.13 0 0 1 -23-2.75l-8.51 8.82 11.83 2.15h38.71l12.88-2.15-8.58-8.87 8.58-2.15z" fill="#dcaa00"/><path d="m23.14 55.65-11.26-2 6.41-6.65a1.81 1.81 0 0 0 -.86-3l-5.54-1.39 6.11-6.39a2 2 0 0 0 -1-3.36l-5.19-1.3 7.19-9.63a4.35 4.35 0 0 0 .18-4.93l-4.92-7.8-10.78-3.11 9.68 15.42-8.87 12 8.58 2.15-8.58 8.88 8.58 2.15-8.58 8.87 11.83 2.15h7zm25.33 0 11.26-2-6.41-6.65a1.81 1.81 0 0 1 .86-3l5.54-1.39-6.15-6.36a2 2 0 0 1 1-3.36l5.19-1.3-7.11-9.62a4.35 4.35 0 0 1 -.23-4.97l4.93-7.8 10.78-3.11-9.68 15.42 8.87 12-8.58 2.15 8.58 8.87-8.58 2.15 8.58 8.87-11.83 2.16h-7z" fill="#dcaa00"/><path d="m26.12 57.71h18.88v3.35a4.85 4.85 0 0 1 -4.85 4.85h-9.15a4.85 4.85 0 0 1 -4.85-4.85v-3.35zm-5.55-29.29h31.41l-6.48 11.04-19.38-.69z" fill="#a77815"/><path d="m5.87 8.17 12.66 7.92-4.34 5.91z" fill="#fff"/><path d="m12.84 12.51 5.75 3.59-1.97 2.68z" fill="#231f20"/><path d="m66.24 8.17-12.67 7.92 4.35 5.91z" fill="#fff"/><path d="m59.26 12.51-5.75 3.59 1.97 2.68z" fill="#231f20"/><path d="m58.84 21.51 9.68-15.42-21.91 6.32h-21.22l-21.91-6.32 9.68 15.42-8.87 12 8.58 2.15-8.58 8.88 8.58 2.15-8.58 8.87 11.83 2.15h38.71l12.88-2.15-8.58-8.87 8.58-2.15-8.58-8.87 8.58-2.15z" fill="none" stroke="#231f20" stroke-linecap="round" stroke-linejoin="round" stroke-width="4"/><path d="m19.59 28.42 6.53 10.35v20.87a6.27 6.27 0 0 0 6.27 6.27h7.22a6.27 6.27 0 0 0 6.27-6.27v-20.87l6.53-10.35zm6.53 10.35h19.76" fill="none" stroke="#231f20" stroke-linecap="round" stroke-linejoin="round" stroke-width="4"/><path d="m33.58 34.63-8.35-6.27h21.54l-8.35 6.27a4 4 0 0 1 -4.84 0zm-6.96 4.47h18.36v17.64h-18.36z" fill="#231f20"/><path d="m30.23 46.19-2.05-5.27h4.09zm11.33 0-2.04-5.27h4.08zm-7.52 6.69 1.94 2.86h-3.88zm-3.89 0 1.95 2.86h-3.89zm11.65 0 1.95 2.86h-3.89zm-3.88 0 1.94 2.86h-3.88z" fill="#fff"/><path d="m34.79 22.31-9.44-4.08-4.75 3 4.4-.47.51.24a2.26 2.26 0 0 0 0 .39 2.34 2.34 0 0 0 2.34 2.34 2.31 2.31 0 0 0 1.77-.83l.15.07a3.46 3.46 0 0 0 2.64.17zm2.06 0 9.44-4.08 4.75 3-4.37-.49-.51.24a2.26 2.26 0 0 1 0 .39 2.34 2.34 0 0 1 -2.34 2.34 2.31 2.31 0 0 1 -1.77-.83l-.15.07a3.46 3.46 0 0 1 -2.64.17z" fill="#231f20"/></svg>