<?xml version="1.0" encoding="utf-8"?>
<!-- Generator: Adobe Illustrator 19.2.1, SVG Export Plug-In . SVG Version: 6.00 Build 0)  -->
<svg version="1.1" id="Layer_1" xmlns="http://www.w3.org/2000/svg" xmlns:xlink="http://www.w3.org/1999/xlink" x="0px" y="0px"
	 viewBox="0 0 72 72" style="enable-background:new 0 0 72 72;" xml:space="preserve">
<style type="text/css">
	.st0{fill:#FFFFFF;}
	.st1{fill:#BCBCBC;}
	.st2{fill:#008888;}
	.st3{fill:#00006B;}
	.st4{fill:#09E8D8;}
	.st5{fill:#0000BC;}
	.st6{fill:#4428BC;}
	.st7{fill:#F87858;}
	.st8{fill:#0000FC;}
	.st9{fill:#FCB688;}
	.st10{fill:#FFF2DD;}
	.st11{fill:#FCE0A8;}
	.st12{fill:#A80020;}
	.st13{fill:#0078F8;}
	.st14{fill:#F83800;}
	.st15{fill:#AE3201;}
	.st16{fill:#D8D8D8;}
	.st17{fill:#F8F8F8;}
	.st18{fill:#393939;}
	.st19{fill:#787878;}
	.st20{fill:#E45C11;}
	.st21{fill:#FCA044;}
	.st22{fill:#881400;}
</style>
<path class="st0" d="M64.5,66H66v1.5h-1.5V66z M63,66h1.5v1.5H63V66z M61.5,66H63v1.5h-1.5V66z M9,66h1.5v1.5H9V66z M7.5,66H9v1.5
	H7.5V66z M6,66h1.5v1.5H6V66z M64.5,64.5H66V66h-1.5V64.5z M63,64.5h1.5V66H63V64.5z M7.5,64.5H9V66H7.5V64.5z M6,64.5h1.5V66H6
	V64.5z M64.5,63H66v1.5h-1.5V63z"/>
<path class="st1" d="M60,63h1.5v1.5H60V63z M58.5,63H60v1.5h-1.5V63z M57,63h1.5v1.5H57V63z M55.5,63H57v1.5h-1.5V63z M54,63h1.5
	v1.5H54V63z M52.5,63H54v1.5h-1.5V63z M51,63h1.5v1.5H51V63z M49.5,63H51v1.5h-1.5V63z M48,63h1.5v1.5H48V63z M46.5,63H48v1.5h-1.5
	V63z M45,63h1.5v1.5H45V63z M43.5,63H45v1.5h-1.5V63z M42,63h1.5v1.5H42V63z M28.5,63H30v1.5h-1.5V63z M27,63h1.5v1.5H27V63z
	 M25.5,63H27v1.5h-1.5V63z M24,63h1.5v1.5H24V63z M22.5,63H24v1.5h-1.5V63z M21,63h1.5v1.5H21V63z M19.5,63H21v1.5h-1.5V63z M18,63
	h1.5v1.5H18V63z M16.5,63H18v1.5h-1.5V63z M15,63h1.5v1.5H15V63z M13.5,63H15v1.5h-1.5V63z M12,63h1.5v1.5H12V63z M10.5,63H12v1.5
	h-1.5V63z"/>
<path class="st0" d="M6,63h1.5v1.5H6V63z"/>
<path class="st1" d="M61.5,61.5H63V63h-1.5V61.5z M60,61.5h1.5V63H60V61.5z M10.5,61.5H12V63h-1.5V61.5z M9,61.5h1.5V63H9V61.5z
	 M61.5,60H63v1.5h-1.5V60z M9,60h1.5v1.5H9V60z M61.5,58.5H63V60h-1.5V58.5z"/>
<path class="st2" d="M55.5,58.5H57V60h-1.5V58.5z"/>
<path class="st0" d="M54,58.5h1.5V60H54V58.5z M49.5,58.5H51V60h-1.5V58.5z"/>
<path class="st2" d="M48,58.5h1.5V60H48V58.5z M22.5,58.5H24V60h-1.5V58.5z"/>
<path class="st0" d="M21,58.5h1.5V60H21V58.5z M16.5,58.5H18V60h-1.5V58.5z"/>
<path class="st2" d="M15,58.5h1.5V60H15V58.5z"/>
<path class="st1" d="M9,58.5h1.5V60H9V58.5z M61.5,57H63v1.5h-1.5V57z"/>
<path class="st2" d="M55.5,57H57v1.5h-1.5V57z"/>
<path class="st0" d="M54,57h1.5v1.5H54V57z M49.5,57H51v1.5h-1.5V57z"/>
<path class="st2" d="M48,57h1.5v1.5H48V57z M22.5,57H24v1.5h-1.5V57z"/>
<path class="st0" d="M21,57h1.5v1.5H21V57z M16.5,57H18v1.5h-1.5V57z"/>
<path class="st2" d="M15,57h1.5v1.5H15V57z"/>
<path class="st1" d="M9,57h1.5v1.5H9V57z M61.5,55.5H63V57h-1.5V55.5z"/>
<path class="st3" d="M57,55.5h1.5V57H57V55.5z M55.5,55.5H57V57h-1.5V55.5z"/>
<path class="st2" d="M54,55.5h1.5V57H54V55.5z"/>
<path class="st0" d="M49.5,55.5H51V57h-1.5V55.5z"/>
<path class="st2" d="M48,55.5h1.5V57H48V55.5z M22.5,55.5H24V57h-1.5V55.5z"/>
<path class="st0" d="M21,55.5h1.5V57H21V55.5z"/>
<path class="st4" d="M18,60h3v-4.5h-3V60z M51,55.5V60h3v-4.5H51z"/>
<path class="st2" d="M16.5,55.5H18V57h-1.5V55.5z"/>
<path class="st3" d="M15,55.5h1.5V57H15V55.5z M13.5,55.5H15V57h-1.5V55.5z"/>
<path class="st1" d="M9,55.5h1.5V57H9V55.5z M61.5,54H63v1.5h-1.5V54z"/>
<path class="st5" d="M57,54h1.5v1.5H57V54z"/>
<path class="st6" d="M55.5,54H57v1.5h-1.5V54z"/>
<path class="st3" d="M54,54h1.5v1.5H54V54z"/>
<path class="st2" d="M52.5,54H54v1.5h-1.5V54z M48,54h1.5v1.5H48V54z M22.5,54H24v1.5h-1.5V54z M18,54h1.5v1.5H18V54z"/>
<path class="st3" d="M16.5,54H18v1.5h-1.5V54z"/>
<path class="st5" d="M15,54h1.5v1.5H15V54z"/>
<path class="st6" d="M13.5,54H15v1.5h-1.5V54z"/>
<path class="st1" d="M9,54h1.5v1.5H9V54z M61.5,52.5H63V54h-1.5V52.5z"/>
<path class="st6" d="M57,52.5h1.5V54H57V52.5z"/>
<path class="st3" d="M55.5,52.5H57V54h-1.5V52.5z"/>
<path class="st1" d="M39,52.5h1.5V54H39V52.5z"/>
<path class="st0" d="M37.5,52.5H39V54h-1.5V52.5z M36,52.5h1.5V54H36V52.5z M34.5,52.5H36V54h-1.5V52.5z M33,52.5h1.5V54H33V52.5z"
	/>
<path class="st1" d="M31.5,52.5H33V54h-1.5V52.5z"/>
<path class="st3" d="M15,52.5h1.5V54H15V52.5z"/>
<path class="st5" d="M13.5,52.5H15V54h-1.5V52.5z"/>
<path class="st1" d="M9,52.5h1.5V54H9V52.5z M61.5,51H63v1.5h-1.5V51z"/>
<path class="st3" d="M57,51h1.5v1.5H57V51z M13.5,51H15v1.5h-1.5V51z"/>
<path class="st1" d="M9,51h1.5v1.5H9V51z M61.5,49.5H63V51h-1.5V49.5z M9,49.5h1.5V51H9V49.5z M61.5,48H63v1.5h-1.5V48z M9,48h1.5
	v1.5H9V48z M61.5,46.5H63V48h-1.5V46.5z M9,46.5h1.5V48H9V46.5z"/>
<path class="st0" d="M45,40.5h1.5V42H45V40.5z M40.5,40.5H42V42h-1.5V40.5z"/>
<path class="st7" d="M39,55.5h1.5V54H39V55.5z M33,57h6v-1.5h-6V57z M13.5,58.5H15V57h-1.5V58.5z M30,54h1.5v-1.5h9V54H42v-1.5h1.5
	V51h-15v1.5H30V54z M37.5,40.5V45H39v-4.5H37.5z M33,45h-1.5v3H33V45z M34.5,40.5H33V45h1.5V40.5z M18,45v3h1.5v-3H18z M40.5,45H39
	v3h1.5V45z M31.5,54v1.5H33V54H31.5z M39,49.5V48h-6v1.5H39z M28.5,60v1.5H30V63h1.5v-3H28.5z M49.5,46.5H48V54h1.5v-3H51v-1.5h-1.5
	V46.5z M45,58.5h-1.5V60h3v-3H45V58.5z M46.5,57H48v-3h-1.5V57z M51,49.5h1.5V48H51V49.5z M52.5,48H54v-3h-1.5V48z M57,57v1.5h1.5
	V57H57z M40.5,63H42v-1.5h1.5V60h-3V63z M19.5,48v1.5H21V48H19.5z M22.5,46.5v3H21V51h1.5v3H24v-7.5H22.5z M24,54v3h1.5v-3H24z
	 M27,58.5V57h-1.5v3h3v-1.5H27z M31.5,64.5h9V63h-9V64.5z"/>
<path class="st0" d="M30,40.5h1.5V42H30V40.5z M25.5,40.5H27V42h-1.5V40.5z"/>
<path class="st1" d="M52.5,36H54v1.5h-1.5V36z M18,36h1.5v1.5H18V36z M54,34.5h1.5V36H54V34.5z"/>
<path class="st8" d="M52.5,34.5H54V36h-1.5V34.5z"/>
<path class="st1" d="M51,34.5h1.5V36H51V34.5z M49.5,34.5H51V36h-1.5V34.5z M48,34.5h1.5V36H48V34.5z"/>
<path class="st9" d="M25.5,54v3H27v-3H25.5z M24,40.5V39h1.5v-4.5H24V36h-1.5v7.5H21V45h1.5v1.5H24V54h1.5V40.5H24z M28.5,52.5V54
	H30v-1.5H28.5z M24,58.5h1.5V57H24V58.5z M33,57v-1.5h-1.5V57H33z M39,51v-1.5h-6V51H39z M28.5,60H30v-1.5h-1.5V60z M33,48h-1.5v1.5
	H33V48z M33,40.5h-1.5V42H33V40.5z M40.5,48H39v1.5h1.5V48z M31.5,55.5V54H30v1.5H31.5z M27,57v1.5h1.5V57H27z M43.5,58.5H45V57
	h-1.5V58.5z M40.5,40.5H42V39h-1.5V40.5z M45,57h1.5v-3H45V57z M39,42h1.5v-1.5H39V42z M39,61.5h-6V60h-1.5v3h9v-3H39V61.5z
	 M49.5,43.5V36H48v-1.5h-1.5v3H48V39h-1.5v15H48v-7.5h1.5V45H51v-1.5H49.5z M42,37.5V39h4.5v-1.5H42z M39,57h1.5v-1.5H39V57z
	 M43.5,52.5H42V54h1.5V52.5z M48,58.5V57h-1.5v1.5H48z M42,54h-1.5v1.5H42V54z M42,60h1.5v-1.5H42V60z"/>
<path class="st1" d="M22.5,34.5H24V36h-1.5V34.5z M21,34.5h1.5V36H21V34.5z M19.5,34.5H21V36h-1.5V34.5z"/>
<path class="st8" d="M18,34.5h1.5V36H18V34.5z"/>
<path class="st1" d="M16.5,34.5H18V36h-1.5V34.5z"/>
<path class="st3" d="M57,33h1.5v1.5H57V33z"/>
<path class="st1" d="M54,33h1.5v1.5H54V33z"/>
<path class="st0" d="M52.5,33H54v1.5h-1.5V33z M51,33h1.5v1.5H51V33z"/>
<path class="st8" d="M49.5,33H51v1.5h-1.5V33z"/>
<path class="st1" d="M46.5,33H48v1.5h-1.5V33z M45,33h1.5v1.5H45V33z M43.5,33H45v1.5h-1.5V33z"/>
<path class="st10" d="M33,60h6v-1.5h-6V60z M25.5,43.5h6V42h-6V43.5z M19.5,46.5H21V45h-1.5V46.5z M33,48h6v-1.5h-6V48z M13.5,60H15
	v-1.5h-1.5V60z M51,46.5h1.5V45H51V46.5z M33,37.5h6V36h-6V37.5z M57,58.5V60h1.5v-1.5H57z M40.5,43.5h6V42h-6V43.5z M40.5,33h-9
	v1.5h9V33z"/>
<path class="st11" d="M39,46.5V45h-1.5v-4.5H39V39h1.5v-1.5H42V36h4.5v-1.5h-3V33h-3v1.5h-9V33h-3v1.5h-3V39H33v1.5h1.5V45H33v1.5
	H39z M33,37.5V36h6v1.5H33z M21,46.5h-1.5V48H21v1.5h1.5V45H21V46.5z M24,60h1.5v-1.5H24V60z M42,40.5h4.5V39H42V40.5z M46.5,60H48
	v-1.5h-1.5V60z M51,46.5V45h-1.5v4.5H51V48h1.5v-1.5H51z M33,61.5h6V60h-6V61.5z M46.5,43.5h-6V42H39v3h1.5v4.5H39V51h4.5v3H42v1.5
	h-1.5V57h-9v-1.5H30V54h-1.5v-3H33v-1.5h-1.5V45H33v-3h-1.5v1.5h-6V54H27v3h1.5v1.5H30V60h3v-1.5h6V60h3v-1.5h1.5V57H45v-3h1.5V43.5
	z"/>
<path class="st1" d="M27,33h1.5v1.5H27V33z M25.5,33H27v1.5h-1.5V33z M24,33h1.5v1.5H24V33z"/>
<path class="st8" d="M21,33h1.5v1.5H21V33z"/>
<path class="st0" d="M19.5,33H21v1.5h-1.5V33z M18,33h1.5v1.5H18V33z"/>
<path class="st1" d="M16.5,33H18v1.5h-1.5V33z"/>
<path class="st3" d="M13.5,33H15v1.5h-1.5V33z"/>
<path class="st6" d="M57,31.5h1.5V33H57V31.5z"/>
<path class="st3" d="M55.5,31.5H57V33h-1.5V31.5z"/>
<path class="st1" d="M54,31.5h1.5V33H54V31.5z"/>
<path class="st12" d="M52.5,31.5H54V33h-1.5V31.5z M51,31.5h1.5V33H51V31.5z"/>
<path class="st0" d="M49.5,31.5H51V33h-1.5V31.5z M48,31.5h1.5V33H48V31.5z"/>
<path class="st1" d="M42,31.5h1.5V33H42V31.5z M40.5,31.5H42V33h-1.5V31.5z M39,31.5h1.5V33H39V31.5z M37.5,31.5H39V33h-1.5V31.5z
	 M36,31.5h1.5V33H36V31.5z M34.5,31.5H36V33h-1.5V31.5z M33,31.5h1.5V33H33V31.5z M31.5,31.5H33V33h-1.5V31.5z M30,31.5h1.5V33H30
	V31.5z M28.5,31.5H30V33h-1.5V31.5z"/>
<path class="st0" d="M22.5,31.5H24V33h-1.5V31.5z M21,31.5h1.5V33H21V31.5z"/>
<path class="st12" d="M19.5,31.5H21V33h-1.5V31.5z M18,31.5h1.5V33H18V31.5z"/>
<path class="st1" d="M16.5,31.5H18V33h-1.5V31.5z"/>
<path class="st3" d="M15,31.5h1.5V33H15V31.5z"/>
<path class="st5" d="M13.5,31.5H15V33h-1.5V31.5z"/>
<path class="st3" d="M57,30h1.5v1.5H57V30z"/>
<path class="st1" d="M52.5,30H54v1.5h-1.5V30z M51,30h1.5v1.5H51V30z"/>
<path class="st12" d="M49.5,30H51v1.5h-1.5V30z"/>
<path class="st0" d="M46.5,30H48v1.5h-1.5V30z M45,30h1.5v1.5H45V30z M43.5,30H45v1.5h-1.5V30z"/>
<path class="st13" d="M24,33h4.5v-1.5H24V33z M22.5,34.5H24V33h-1.5V34.5z M28.5,30v1.5h15V30H28.5z M48,33v1.5h1.5V33H48z
	 M43.5,31.5V33H48v-1.5H43.5z"/>
<path class="st0" d="M27,30h1.5v1.5H27V30z M25.5,30H27v1.5h-1.5V30z M24,30h1.5v1.5H24V30z"/>
<path class="st12" d="M21,30h1.5v1.5H21V30z"/>
<path class="st1" d="M19.5,30H21v1.5h-1.5V30z M18,30h1.5v1.5H18V30z"/>
<path class="st3" d="M13.5,30H15v1.5h-1.5V30z"/>
<path class="st1" d="M49.5,28.5H51V30h-1.5V28.5z M48,28.5h1.5V30H48V28.5z"/>
<path class="st0" d="M42,28.5h1.5V30H42V28.5z M40.5,28.5H42V30h-1.5V28.5z M39,28.5h1.5V30H39V28.5z M37.5,28.5H39V30h-1.5V28.5z
	 M36,28.5h1.5V30H36V28.5z M34.5,28.5H36V30h-1.5V28.5z M33,28.5h1.5V30H33V28.5z M31.5,28.5H33V30h-1.5V28.5z M30,28.5h1.5V30H30
	V28.5z M28.5,28.5H30V30h-1.5V28.5z"/>
<path class="st1" d="M22.5,28.5H24V30h-1.5V28.5z M21,28.5h1.5V30H21V28.5z M46.5,27H48v1.5h-1.5V27z M45,27h1.5v1.5H45V27z
	 M43.5,27H45v1.5h-1.5V27z"/>
<path class="st14" d="M22.5,31.5H24V30h-1.5V31.5z M28.5,27v1.5h15V27H28.5z M24,30h4.5v-1.5H24V30z M48,30v1.5h1.5V30H48z
	 M43.5,28.5V30H48v-1.5H43.5z"/>
<path class="st1" d="M27,27h1.5v1.5H27V27z M25.5,27H27v1.5h-1.5V27z M24,27h1.5v1.5H24V27z M61.5,25.5H63V27h-1.5V25.5z M42,25.5
	h1.5V27H42V25.5z M40.5,25.5H42V27h-1.5V25.5z M39,25.5h1.5V27H39V25.5z M37.5,25.5H39V27h-1.5V25.5z M36,25.5h1.5V27H36V25.5z
	 M34.5,25.5H36V27h-1.5V25.5z M33,25.5h1.5V27H33V25.5z M31.5,25.5H33V27h-1.5V25.5z M30,25.5h1.5V27H30V25.5z M28.5,25.5H30V27
	h-1.5V25.5z M9,25.5h1.5V27H9V25.5z M61.5,22.5H63V24h-1.5V22.5z M9,22.5h1.5V24H9V22.5z"/>
<path class="st15" d="M57,43.5V42h-1.5v1.5H57z M12,45v1.5h1.5V45H12z M54,37.5h-1.5v3H54V37.5z M21,36h-1.5v1.5H21V36z M58.5,45
	v-1.5H57V45H58.5z M55.5,42v-1.5H54V42H55.5z M21,54h1.5v-3H21V54z M13.5,46.5V48H15v-1.5H13.5z M16.5,42H15v1.5h1.5V42z M15,43.5
	h-1.5V45H15V43.5z M54,48h-1.5v1.5H54V48z M52.5,42v1.5H54V42H52.5z M18,52.5h1.5V51H18V52.5z M55.5,46.5H57V45h-1.5v-1.5H54V48h1.5
	V46.5z M19.5,49.5V48H18v1.5H19.5z M16.5,34.5H15v3h1.5V34.5z M19.5,49.5V51H21v-1.5H19.5z M18,40.5h-1.5V42H18V40.5z M16.5,45H15
	v1.5h1.5V48H18v-4.5h-1.5V45z M16.5,49.5V51H18v-1.5H16.5z M18,43.5h1.5V42H18V43.5z M15,48v1.5h1.5V48H15z M51,40.5V42h1.5v-1.5H51
	z M51,36v1.5h1.5V36H51z M19.5,37.5H18v3h1.5V37.5z M52.5,52.5H54V51h-1.5V52.5z M49.5,54H51v-3h-1.5V54z M21,42v-1.5h-1.5V42H21z
	 M51,49.5V51h1.5v-1.5H51z M15,28.5V30h1.5v-1.5H15z M57,19.5h-1.5V21H57V19.5z M52.5,21H51v1.5h1.5V21z M55.5,25.5V24H54v1.5H55.5z
	 M52.5,24H51v1.5h1.5V24z M52.5,25.5V27H54v-1.5H52.5z M28.5,24v1.5h15V24H28.5z M48,22.5h-1.5V24H48V22.5z M22.5,25.5H21V27h-1.5
	v1.5H18V30h3v-1.5h3V27h-1.5V25.5z M27,24h-1.5v1.5H24V27h4.5v-1.5H27V24z M55.5,27H57v-1.5h-1.5V27z M55.5,21H54v1.5h1.5V21z
	 M57,28.5h1.5V27H57V28.5z M46.5,25.5V24H45v1.5h-1.5V27H48v-1.5H46.5z M55.5,27H54v1.5h-1.5V27H51v-1.5h-1.5V27H48v1.5h3V30h3v1.5
	h1.5V30H57v-1.5h-1.5V27z M58.5,19.5V21H57v1.5h1.5V24H57v1.5h1.5V27H60v-7.5H58.5z M49.5,25.5V24H48v1.5H49.5z M54,24v-1.5h-1.5V24
	H54z M13.5,27v1.5H15V27H13.5z M51,22.5h-1.5V24H51V22.5z M55.5,24H57v-1.5h-1.5V24z M55.5,49.5H57V48h-1.5V49.5z M16.5,31.5H18V30
	h-1.5V31.5z M21,21h-1.5v1.5H21V21z M16.5,19.5H15V21h1.5V19.5z M25.5,22.5H24V24h1.5V22.5z M15,25.5V24h-1.5v-1.5H15V21h-1.5v-1.5
	H12V27h1.5v-1.5H15z M24,25.5V24h-1.5v1.5H24z M57,34.5h-1.5v3H57V34.5z M54,51h1.5v-1.5H54V51z M58.5,46.5H60V45h-1.5V46.5z M57,48
	h1.5v-1.5H57V48z M22.5,24v-1.5H21V24H22.5z M19.5,24v1.5H21V24H19.5z M19.5,24v-1.5H18V24H19.5z M16.5,22.5H15V24h1.5V22.5z
	 M18,22.5V21h-1.5v1.5H18z M18,25.5V27h1.5v-1.5H18z M15,25.5V27h1.5v-1.5H15z M18,25.5V24h-1.5v1.5H18z M16.5,27v1.5H18V27H16.5z"
	/>
<path class="st1" d="M61.5,27H63v30.5h-1.5V27z M9,27h1.5v30.5H9V27z"/>
<path class="st16" d="M61.5,24H63v1.5h-1.5V24z M9,24h1.5v1.5H9V24z M61.5,18H63v4.5h-1.5V18z M9,18h1.5v4.5H9V18z M61.5,15H63v1.5
	h-1.5V15z M9,15h1.5v1.5H9V15z"/>
<path class="st0" d="M64.5,10.5H66V12h-1.5V10.5z"/>
<path class="st17" d="M10.5,12H9v3h1.5v-1.5H12V12h4.5v-1.5h-6V12z M9,18h1.5v-1.5H9V18z M61.5,18H63v-1.5h-1.5V18z M61.5,12v-1.5
	h-6V12H60v1.5h1.5V15H63v-3H61.5z"/>
<path class="st0" d="M6,10.5h1.5V12H6V10.5z M64.5,9H66v1.5h-1.5V9z M63,9h1.5v1.5H63V9z"/>
<path class="st18" d="M31.5,66h9v-1.5h-9V66z M40.5,64.5H42V63h-1.5V64.5z M30,63v1.5h1.5V63H30z M42,63h1.5v-1.5H42V63z M28.5,61.5
	V63H30v-1.5H28.5z M60,48h1.5v-1.5H60V48z M10.5,48H12v-1.5h-1.5V48z M60,27v1.5h1.5V27H60z M10.5,28.5H12V27h-1.5V28.5z M55.5,13.5
	H57V12h-1.5V13.5z M15,13.5h1.5V12H15V13.5z M54,10.5V12h1.5v-1.5H54z M16.5,12H18v-1.5h-1.5V12z M52.5,9v1.5H54V9H52.5z M18,10.5
	h1.5V9H18V10.5z"/>
<path class="st19" d="M28.5,63v-1.5H12V63H28.5z M10.5,48v13.5H12V48H10.5z M10.5,39H12V28.5h-1.5V39z M15,12h-3v1.5h3V12z M60,39
	h1.5V28.5H60V39z M12,13.5h-1.5v6H12V13.5z M61.5,19.5v-6H60v6H61.5z M61.5,48H60v13.5h1.5V48z M57,12v1.5h3V12H57z M60,61.5H43.5
	V63H60V61.5z M61.5,64.5H63V63h-1.5V64.5z M54,9v1.5h7.5V9H54z M61.5,10.5V12H63v-1.5H61.5z M63,12v51h1.5V12H63z M40.5,66h21v-1.5
	h-21V66z M9,63v1.5h1.5V63H9z M10.5,66h21v-1.5h-21V66z M7.5,12v51H9V12H7.5z M10.5,10.5H9V12h1.5V10.5z M18,9h-7.5v1.5H18V9z"/>
<path class="st0" d="M7.5,9H9v1.5H7.5V9z M6,9h1.5v1.5H6V9z M64.5,7.5H66V9h-1.5V7.5z M63,7.5h1.5V9H63V7.5z M61.5,7.5H63V9h-1.5
	V7.5z"/>
<path class="st20" d="M48,9h-1.5v1.5H48V9z M60,42v-1.5h-1.5V42H60z M51,37.5v3h1.5v-3H51z M45,9h-1.5v1.5H45V9z M40.5,7.5H39V9h1.5
	V7.5z M25.5,9H24v1.5h1.5V9z M51,25.5V27h1.5v-1.5H51z M28.5,9H27v1.5h1.5V9z M33,7.5h-1.5V9H33V7.5z M52.5,22.5H51V24h1.5V22.5z
	 M52.5,28.5H54V27h-1.5V28.5z M57,37.5h-1.5V39H57V37.5z M55.5,24v-1.5H54V24H55.5z M58.5,40.5V39H57v1.5H58.5z M52.5,24v1.5H54V24
	H52.5z M58.5,21v-1.5H57V21H58.5z M58.5,24v-1.5H57V24H58.5z M54,39v1.5h1.5V39H54z M58.5,27v-1.5H57V27H58.5z M13.5,19.5V21H15
	v-1.5H13.5z M55.5,28.5H57V27h-1.5V28.5z M13.5,46.5H15V45h-1.5V46.5z M18,49.5V48h-1.5v1.5H18z M57,42v1.5h1.5V42H57z M15,49.5V51
	h1.5v-1.5H15z M16.5,52.5H18V51h-1.5V52.5z M12,43.5V45h1.5v-1.5H12z M52.5,42H54v-1.5h-1.5V42z M16.5,48v-1.5H15V48H16.5z M21,43.5
	V42h-1.5v1.5H21z M19.5,51v-1.5H18V51H19.5z M18,42h1.5v-1.5H18V42z M13.5,22.5V24H15v-1.5H13.5z M16.5,45v-1.5H15V45H16.5z
	 M16.5,18H15v1.5h1.5V18z M48,27h1.5v-1.5H48V27z M19.5,40.5H21v-3h-1.5V40.5z M22.5,27H24v-1.5h-1.5V27z M16.5,30H18v-1.5h-1.5V30z
	 M13.5,25.5V27H15v-1.5H13.5z M16.5,39v1.5H18V39H16.5z M15,42h1.5v-1.5H15V42z M55.5,40.5V42H57v-1.5H55.5z M12,40.5V42h1.5v-1.5
	H12z M16.5,37.5H15V39h1.5V37.5z M13.5,43.5H15V42h-1.5V43.5z M15,39h-1.5v1.5H15V39z M21,54v-3h-1.5v3H21z M15,27v1.5h1.5V27H15z
	 M34.5,10.5V9H33v1.5H34.5z M31.5,9H30v1.5h1.5V9z M18,28.5h1.5V27H18V28.5z M16.5,24H15v1.5h1.5V24z M16.5,21H15v1.5h1.5V21z
	 M42,10.5V9h-1.5v1.5H42z M19.5,16.5V18H21v-1.5H19.5z M21,24v1.5h1.5V24H21z M39,10.5V9h-1.5v1.5H39z M19.5,27H21v-1.5h-1.5V27z
	 M37.5,7.5h-3V9h3V7.5z M27,12v-1.5h-1.5V12H27z M16.5,27H18v-1.5h-1.5V27z M21,24v-1.5h-1.5V24H21z M30,12v-1.5h-1.5V12H30z
	 M18,16.5h1.5V15H21v-1.5h1.5V12H24v-1.5h-3V12h-1.5v1.5H18V15h-1.5v3H18V16.5z M24,25.5h1.5V24H24V25.5z M16.5,24H18v-1.5h-1.5V24z
	 M21,15v1.5h1.5V15H21z M22.5,13.5V15H24v-1.5H22.5z M18,25.5h1.5V24H18V25.5z M24,12v1.5h1.5V12H24z M27,12v1.5h1.5V12H27z
	 M55.5,25.5H57V24h-1.5V25.5z M52.5,49.5V51H54v-1.5H52.5z M54,49.5h1.5V48H54V49.5z M55.5,48H57v-1.5h-1.5V48z M43.5,12v1.5H45V12
	H43.5z M57,46.5h1.5V45H57V46.5z M43.5,12v-1.5H42V12H43.5z M54,52.5h1.5V51H54V52.5z M51,43.5h1.5V42H51V43.5z M54,25.5V27h1.5
	v-1.5H54z M55.5,43.5V45H57v-1.5H55.5z M57,19.5V18h-1.5v1.5H57z M55.5,22.5H57V21h-1.5V22.5z M51,54h1.5v-3H51V54z M49.5,12v1.5H51
	V15h1.5v1.5H54V18h1.5v-3H54v-1.5h-1.5V12H51v-1.5h-3V12H49.5z M51,16.5V18h1.5v-1.5H51z M48,22.5V24h1.5v-1.5H51V21h1.5v1.5H54V21
	h1.5v-1.5H54V18h-1.5v1.5H51V18h-1.5v1.5H48V18h1.5v-1.5H48V15h-1.5v-1.5H45V15h-1.5v-1.5H42V12h-1.5v-1.5H39V12h-1.5v-1.5h-3V12H33
	v-1.5h-1.5V12H30v1.5h-1.5V15H27v-1.5h-1.5V15H24v1.5h-1.5V18H24v1.5h-1.5V18H21v1.5h-1.5V18H18v1.5h-1.5V21H18v1.5h1.5V21H21v1.5
	h1.5V24H24v-1.5h1.5V24H27v1.5h1.5V24h15v1.5H45V24h1.5v-1.5H48z M46.5,12v-1.5H45V12H46.5z M46.5,24v1.5H48V24H46.5z M60,45v-1.5
	h-1.5V45H60z M51,15h-1.5v1.5H51V15z M48,12h-1.5v1.5H48V12z M57,51v-1.5h-1.5V51H57z M49.5,13.5H48V15h1.5V13.5z M51,24h-1.5v1.5
	H51V24z"/>
<path class="st0" d="M9,7.5h1.5V9H9V7.5z M7.5,7.5H9V9H7.5V7.5z M6,7.5h1.5V9H6V7.5z M64.5,6H66v1.5h-1.5V6z M63,6h1.5v1.5H63V6z
	 M61.5,6H63v1.5h-1.5V6z M60,6h1.5v1.5H60V6z M58.5,6H60v1.5h-1.5V6z M57,6h1.5v1.5H57V6z M55.5,6H57v1.5h-1.5V6z M54,6h1.5v1.5H54
	V6z M52.5,6H54v1.5h-1.5V6z M51,6h1.5v1.5H51V6z"/>
<path class="st21" d="M48,12v1.5h1.5V12H48z M22.5,13.5H24V12h-1.5V13.5z M27,12h1.5v-1.5H27V12z M43.5,10.5V12H45v-1.5H43.5z
	 M46.5,10.5V12H48v-1.5H46.5z M24,10.5V12h1.5v-1.5H24z M12,43.5h1.5V42H12V43.5z M16.5,39H18v-1.5h-1.5V39z M15,40.5h1.5V39H15
	V40.5z M51,19.5h1.5V18H51V19.5z M43.5,15H45v-1.5h-1.5V15z M48,19.5h1.5V18H48V19.5z M12,39v1.5h1.5V39H12z M13.5,42H15v-1.5h-1.5
	V42z M15,37.5h-1.5V39H15V37.5z M49.5,13.5V15H51v-1.5H49.5z M21,15h1.5v-1.5H21V15z M37.5,12H39v-1.5h-1.5V12z M13.5,19.5H15V18
	h-1.5V19.5z M54,19.5h1.5V18H54V19.5z M58.5,19.5V18H57v1.5H58.5z M19.5,16.5H21V15h-1.5V16.5z M33,12h1.5v-1.5H33V12z M16.5,19.5
	H18V18h-1.5V19.5z M24,19.5V18h-1.5v1.5H24z M27,15h1.5v-1.5H27V15z M19.5,19.5H21V18h-1.5V19.5z M51,10.5V9h-3v1.5H51z M42,12v1.5
	h1.5V12H42z M45,12v1.5h1.5V12H45z M46.5,13.5V15H48v-1.5H46.5z M40.5,10.5V12H42v-1.5H40.5z M39,9v1.5h1.5V9H39z M31.5,9v1.5H33V9
	H31.5z M34.5,9v1.5h3V9H34.5z M48,15v1.5h1.5V15H48z M51,15v1.5h1.5V15H51z M58.5,37.5H57V39h1.5V37.5z M49.5,16.5V18H51v-1.5H49.5z
	 M30,12h1.5v-1.5H30V12z M55.5,39v1.5H57V39H55.5z M60,40.5V39h-1.5v1.5H60z M54,16.5h-1.5V18H54V16.5z M54,37.5V39h1.5v-1.5H54z
	 M60,43.5V42h-1.5v1.5H60z M57,40.5V42h1.5v-1.5H57z M24,9h-3v1.5h3V9z M52.5,12v-1.5H51V12H52.5z M25.5,10.5H27V9h1.5v1.5H30V9h1.5
	V7.5H33V9h1.5V7.5h3V9H39V7.5h1.5V9H42v1.5h1.5V9H45v1.5h1.5V9H48V7.5h-6V6H30v1.5h-6V9h1.5V10.5z M21,10.5h-1.5V12H21V10.5z M57,18
	v-3h-1.5v3H57z M19.5,12H18v1.5h1.5V12z M55.5,15v-1.5H54V15H55.5z M54,13.5V12h-1.5v1.5H54z M18,13.5h-1.5V15H18V13.5z M24,15h1.5
	v-1.5H24V15z M28.5,13.5H30V12h-1.5V13.5z M22.5,16.5H24V15h-1.5V16.5z M25.5,12v1.5H27V12H25.5z M21,18h1.5v-1.5H21V18z M15,15v3
	h1.5v-3H15z M18,16.5V18h1.5v-1.5H18z"/>
<path class="st0" d="M19.5,6H21v1.5h-1.5V6z M18,6h1.5v1.5H18V6z M16.5,6H18v1.5h-1.5V6z M15,6h1.5v1.5H15V6z M13.5,6H15v1.5h-1.5V6
	z M12,6h1.5v1.5H12V6z M10.5,6H12v1.5h-1.5V6z M9,6h1.5v1.5H9V6z M7.5,6H9v1.5H7.5V6z M6,6h1.5v1.5H6V6z M64.5,4.5H66V6h-1.5V4.5z
	 M63,4.5h1.5V6H63V4.5z M61.5,4.5H63V6h-1.5V4.5z M60,4.5h1.5V6H60V4.5z M58.5,4.5H60V6h-1.5V4.5z M57,4.5h1.5V6H57V4.5z M55.5,4.5
	H57V6h-1.5V4.5z M54,4.5h1.5V6H54V4.5z M52.5,4.5H54V6h-1.5V4.5z M51,4.5h1.5V6H51V4.5z M49.5,4.5H51V6h-1.5V4.5z M48,4.5h1.5V6H48
	V4.5z"/>
<path class="st22" d="M42,36v1.5h4.5V36H42z M49.5,55.5h3V54h-3V55.5z M55.5,52.5H57V51h-1.5V52.5z M52.5,54h3v-1.5h-3V54z M24,40.5
	h9V39h-9V40.5z M40.5,39H42v-1.5h-1.5V39z M46.5,39H48v-1.5h-1.5V39z M57,34.5v3h1.5v-3H57z M55.5,42H54v1.5h1.5V42z M58.5,37.5V39
	H60v-1.5H58.5z M57,51h1.5v-3H57V51z M58.5,48H60v-1.5h-1.5V48z M60,46.5h1.5V39H60V46.5z M55.5,33v1.5H57V33H55.5z M13.5,48v3H15
	v-3H13.5z M21,43.5h1.5V36H21V43.5z M13.5,37.5H12V39h1.5V37.5z M10.5,39v7.5H12V39H10.5z M16.5,33H15v1.5h1.5V33z M15,34.5h-1.5v3
	H15V34.5z M12,46.5V48h1.5v-1.5H12z M16.5,37.5H18V36h-1.5V37.5z M16.5,42v1.5H18V42H16.5z M18,45h3v-1.5h-3V45z M19.5,55.5h3V54h-3
	V55.5z M16.5,52.5V54h3v-1.5H16.5z M15,51v1.5h1.5V51H15z M39,40.5h1.5V39H39V40.5z M42,6v1.5h6V6H42z M48,7.5V9h3V7.5H48z M30,4.5
	V6h12V4.5H30z M24,7.5h6V6h-6V7.5z M19.5,10.5H21V9h-1.5V10.5z M51,9v1.5h1.5V9H51z M21,9h3V7.5h-3V9z M60,19.5V27h1.5v-7.5H60z
	 M58.5,18v1.5H60V18H58.5z M52.5,10.5V12H54v-1.5H52.5z M18,12h1.5v-1.5H18V12z M57,15v3h1.5v-3H57z M54,12v1.5h1.5V12H54z
	 M55.5,13.5V15H57v-1.5H55.5z M10.5,27H12v-7.5h-1.5V27z M55.5,31.5H57V30h-1.5V31.5z M57,30h1.5v-1.5H57V30z M16.5,31.5V30H15v1.5
	H16.5z M58.5,28.5H60V27h-1.5V28.5z M49.5,36v7.5H51V36H49.5z M55.5,36H54v1.5h1.5V36z M16.5,13.5H18V12h-1.5V13.5z M12,19.5h1.5V18
	H12V19.5z M15,30v-1.5h-1.5V30H15z M15,15h1.5v-1.5H15V15z M13.5,18H15v-3h-1.5V18z M54,45v-1.5h-3V45H54z M13.5,28.5V27H12v1.5
	H13.5z"/>
<path class="st0" d="M22.5,4.5H24V6h-1.5V4.5z M21,4.5h1.5V6H21V4.5z M19.5,4.5H21V6h-1.5V4.5z M18,4.5h1.5V6H18V4.5z M16.5,4.5H18
	V6h-1.5V4.5z M15,4.5h1.5V6H15V4.5z M13.5,4.5H15V6h-1.5V4.5z M12,4.5h1.5V6H12V4.5z M10.5,4.5H12V6h-1.5V4.5z M9,4.5h1.5V6H9V4.5z
	 M7.5,4.5H9V6H7.5V4.5z M6,4.5h1.5V6H6V4.5z M64.5,3H66v1.5h-1.5V3z M63,3h1.5v1.5H63V3z M61.5,3H63v1.5h-1.5V3z M60,3h1.5v1.5H60V3
	z M58.5,3H60v1.5h-1.5V3z M57,3h1.5v1.5H57V3z M55.5,3H57v1.5h-1.5V3z M54,3h1.5v1.5H54V3z M52.5,3H54v1.5h-1.5V3z M51,3h1.5v1.5H51
	V3z M49.5,3H51v1.5h-1.5V3z M48,3h1.5v1.5H48V3z M46.5,3H48v1.5h-1.5V3z M45,3h1.5v1.5H45V3z M43.5,3H45v1.5h-1.5V3z M42,3h1.5v1.5
	H42V3z"/>
<path d="M21,7.5H10.5V9H21V7.5z M24,6h-3v1.5h3V6z M7.5,63v1.5H9V63H7.5z M6,12v51h1.5V12H6z M10.5,9H9v1.5h1.5V9z M30,4.5h-6V6h6
	V4.5z M9,10.5H7.5V12H9V10.5z M61.5,9V7.5H51V9H61.5z M42,3H30v1.5h12V3z M64.5,12v-1.5H63V12H64.5z M63,10.5V9h-1.5v1.5H63z
	 M51,7.5V6h-3v1.5H51z M48,6V4.5h-6V6H48z M58.5,60h-15v1.5H60V48h-1.5V60z M27,42h3v-1.5h-3V42z M58.5,37.5H60v-9h-1.5V37.5z
	 M33,55.5h6V54h-6V55.5z M45,40.5h-3V42h3V40.5z M64.5,12v51H66V12H64.5z M57,15h1.5v3H60v-4.5h-3V15z M13.5,28.5H12v9h1.5V28.5z
	 M61.5,66H63v-1.5h-1.5V66z M10.5,67.5h51V66h-51V67.5z M63,64.5h1.5V63H63V64.5z M9,64.5V66h1.5v-1.5H9z M13.5,48H12v13.5h16.5V60
	h-15V48z M13.5,15H15v-1.5h-3V18h1.5V15z"/>
<path class="st0" d="M28.5,3H30v1.5h-1.5V3z M27,3h1.5v1.5H27V3z M25.5,3H27v1.5h-1.5V3z M24,3h1.5v1.5H24V3z M22.5,3H24v1.5h-1.5V3
	z M21,3h1.5v1.5H21V3z M19.5,3H21v1.5h-1.5V3z M18,3h1.5v1.5H18V3z M16.5,3H18v1.5h-1.5V3z M15,3h1.5v1.5H15V3z M13.5,3H15v1.5h-1.5
	V3z M12,3h1.5v1.5H12V3z M10.5,3H12v1.5h-1.5V3z M9,3h1.5v1.5H9V3z M7.5,3H9v1.5H7.5V3z M6,3h1.5v1.5H6V3z"/>
</svg>
