<svg id="Layer_1" xmlns="http://www.w3.org/2000/svg" viewBox="0 0 72 72"><style>.st0{fill:#66B6CC;} .st1{fill:#F7EED2;}</style><path class="st0" d="M36.1 2c-5.9 3.1-18.2 5-25 3.8v20.3c0 8.1 2.3 16.4 6.4 24.1 4.1 7.7 10.1 13.9 16.8 18.4l2.2 1.4 2.2-1.4c6.8-4.5 12.3-10.7 16.4-18.4 4.1-7.7 5.7-15.9 5.7-24.1V5.8C55.3 7 42.2 5.1 36.1 2z"/><path class="st1" d="M51.3 25c-.8-.8-5.7-7.9-7.1-8.6 0 0 1.5-2.8 2.2-4.2-1.5-.6-3.1-.3-4.4 1.6l-.5-.3 1.3-2.4s-6.4-2.8-11.3-.4c-4.8 2.5-8.2 8.3-7.3 14.4.9 6.1 3.3 9.1 1.8 14.7h3.9l-.5 1.8h1.2c1.2 0 1.2 5.3 0 5.8h-2c-.3 0-1.5.3-1.7.5l.5 2.7-2 .4v2.1H47.2V51l-2.1-.5.3-2.8c-.2-.3-1.2-.4-1.6-.4h-2c-1.2-.5-1.2-5.8 0-5.8H43l-.5-2.1h3.4c0-3.3-1.2-8.9-5.6-11-2.7-1.3-2.9-5.2-1.8-6 0 0 .7 2.8 2.6 3.6 1.7 0 3.2-.3 6.7 2.1 0 .9.7 1.6 2.1 1.4.2.1.6 0 .8-.5.2-.5 1-1.7 1.2-2.2.2-.6.2-1-.6-1.8z"/></svg>