<svg viewBox="0 0 72 72" xmlns="http://www.w3.org/2000/svg"><path d="m28.31 64.63c.15.36.81 1.8 2 1.8h15a1.75 1.75 0 0 0 2-1.71l-.08-3.94h-18.84zm15.9-36.36a5.29 5.29 0 0 1 -2.45-3.27c-.3-1.24-1.47-10.9-1.74-13.13h-4.46c-.29 2.41-1.63 13.53-1.93 14.78a5.37 5.37 0 0 1 -2.44 3.27c-2 1.21-2.3 4.58-2.3 4.62l-.05 2.75h17.9l-.05-2.79s.1-4.73-2.48-6.23z" fill="#cc5c3e"/><path d="m33.83 7.53-.31 2.3h7.43l-.3-2.3z" fill="#9a4b51"/><ellipse cx="36.51" cy="48.94" fill="#f47939" rx="5.04" ry="5.55"/><path d="m46.76 38.28h-17.93l-.41 21.5h18.75zm-10.25 17.2a6.57 6.57 0 0 1 0-13.1 6.57 6.57 0 0 1 0 13.1z" fill="#f47939"/><ellipse cx="36.51" cy="48.94" fill="#9a4b51" rx="5.04" ry="5.55"/><g fill="#414042"><path d="m39.11 10.32h-7.9a1 1 0 0 1 -1-1.14l.4-2.76a1 1 0 0 1 1-.86h7.1a1 1 0 0 1 1 .86l.4 2.76a1 1 0 0 1 -1 1.14zm-6.74-2h5.63l-.11-.76h-5.41zm13.14 49.68-.41-21.23-.1-3.11v-.06c0-.16-.34-4-2.89-5.51a3.58 3.58 0 0 1 -1.63-2.17c-.18-.92-1.18-8.8-1.8-13.92a1 1 0 0 0 -1-.88h-5.05a1 1 0 0 0 -1 .88c-.63 5.12-1.63 13-1.83 13.92a3.58 3.58 0 0 1 -1.63 2.17c-2.54 1.53-2.87 5.35-2.89 5.57l-.06 3.11-.41 21.23-.09 4.69a3.24 3.24 0 0 0 3.33 3.33h14.22a3.33 3.33 0 0 0 3.33-3.35zm-18.31-20.21h15.92l.37 19.27h-16.66zm.08-4c.07-.82.55-3.13 1.92-4a5.55 5.55 0 0 0 2.55-3.42c.27-1.15 1.4-10.18 1.77-13.23h3.28c.38 3 1.5 12.08 1.77 13.23a5.55 5.55 0 0 0 2.55 3.42c1.36.83 1.88 3.1 1.88 3.94v2.06h-15.76zm15 30.32h-14.23a1.24 1.24 0 0 1 -1.33-1.33l.07-3.69h16.74l.07 3.61a1.33 1.33 0 0 1 -1.33 1.38z"/><path d="m35.22 40.43a6.82 6.82 0 0 0 -6.54 7 6.82 6.82 0 0 0 6.54 7 6.82 6.82 0 0 0 6.54-7 6.82 6.82 0 0 0 -6.54-7zm0 12.1a5.08 5.08 0 0 1 0-10.1 5.08 5.08 0 0 1 0 10.09z"/></g></svg>