<svg id="Layer_1" xmlns="http://www.w3.org/2000/svg" viewBox="0 0 72 72"><style>.st0{fill:#56C8ED;stroke:#5B5C5E;stroke-width:0.929;stroke-linecap:round;stroke-linejoin:round;stroke-miterlimit:10;} .st1{fill:#FFFFFF;stroke:#5B5C5E;stroke-width:0.929;stroke-linecap:round;stroke-linejoin:round;stroke-miterlimit:10;} .st2{fill:#484849;}</style><path class="st0" d="M56.6 29.1v-3.9s-10.5-5.5-7.9-21.5l-7.2-1.9L36 12.3 30.3 1.8 23 3.7c2.7 16-7.8 21.6-7.8 21.6v3.9l.1 41 41.3-.1v-41z"/><path class="st1" d="M17.4 26.5l.2-.2c2.9-2.2 9.3-8.4 7.8-21 0 0 0-.6-.4-2.2l-2 .5c2.7 16-7.8 21.6-7.8 21.6v1.2l2.2.1zM35.9 17l6.6-12.7.9-2-2-.5-5.5 10.5-5.6-10.5-2 .5.9 2.1zM46.2 5.3c-1.4 13 5.4 19.1 8.2 21.1h2.2v-1.2s-10.5-5.5-7.9-21.5l-2-.5c-.4 1.5-.5 2.1-.5 2.1zM19.4 70.2l-.1-34.7c0-.6-.2-1.2-.4-1.8-.7-1.3-2-2.2-3.5-2.2l.1 38.7h3.9zM52.8 70.1l-.1-34.7c0-.6.2-1.3.4-1.8.6-1.3 2-2.2 3.5-2.2l.1 38.7h-3.9z"/><path class="st2" d="M31.3 41.4h9.2l2-2v-3.8l-1.8-1.8-8 .1-.6-.6v-2.2l.8-.9h6.2l.7.8v1h2.6v-1.7l-1.9-1.9h-9l-2.1 2.1.1 3.6 1.7 1.7h8.1l.6.6v2.3l-.8.8-6.3.1-.7-.8v-1.1h-2.7v1.9z"/></svg>