<svg viewBox="0 0 72 72" xmlns="http://www.w3.org/2000/svg"><ellipse cx="37.7" cy="64.53" fill="#bcbec0" rx="23.1" ry="6.47"/><path d="m23.34 56.81h28.15v7.72h-28.15z" fill="#f9c20a"/><path d="m43.53 56.81h-12.22l-7.87-26.12h27.96z" fill="#e09e19"/><path d="m39.74 56.81h-4.65l-2.99-26.12h10.64z" fill="#f9c20a"/><circle cx="24.76" cy="17.13" fill="#f9c20a" r="13.57" transform="matrix(.95366445 -.30087225 .30087225 .95366445 -4.000078 8.240153)"/><path d="m28.8 23a15.5 15.5 0 0 1 -17.58-6.23 13.55 13.55 0 1 0 26.91-1.92 15.45 15.45 0 0 1 -9.33 8.15z" fill="#e09e19"/><g fill="none" stroke="#231f20" stroke-linecap="round" stroke-linejoin="round"><path d="m43.53 56.81h-12.22l-7.87-26.12h27.96zm-20.19 0h28.15v7.72h-28.15z" stroke-width="5"/><circle cx="24.76" cy="17.13" r="13.57" stroke-width="5" transform="matrix(.95366445 -.30087225 .30087225 .95366445 -4.000078 8.240153)"/><path d="m18.53 29.17a13.57 13.57 0 0 0 -5.76-18.32m24.41 12.44a13.57 13.57 0 0 1 -5.79-18.29m-10.71-.81 8.16 25.87m8.86-17.02-25.87 8.17" stroke-width="2"/></g><path d="m20.11 40.6-1.11.83a.62.62 0 0 0 -.21.7l.43 1.22a.62.62 0 0 1 -1 .69l-1.2-.93a.62.62 0 0 0 -.76 0l-1.24 1a.62.62 0 0 1 -1-.7l.46-1.23a.61.61 0 0 0 -.19-.7l-1.09-.84a.62.62 0 0 1 .37-1.11h1.43a.61.61 0 0 0 .57-.37q.25-.62.52-1.33a.62.62 0 0 1 1.15 0l.51 1.32a.61.61 0 0 0 .57.39h1.37a.62.62 0 0 1 .42 1.06zm32.08-20.32-1.09.83a.62.62 0 0 0 -.21.7l.44 1.19a.62.62 0 0 1 -1 .69l-1.2-.93a.62.62 0 0 0 -.76 0l-1.24 1a.62.62 0 0 1 -1-.7l.46-1.23a.61.61 0 0 0 -.19-.7l-1.09-.84a.62.62 0 0 1 .37-1.11h1.36a.61.61 0 0 0 .57-.37q.25-.62.52-1.33a.62.62 0 0 1 1.15 0l.51 1.32a.61.61 0 0 0 .57.39h1.37a.62.62 0 0 1 .46 1.09z" fill="#f9c20a"/><path d="m43.2 37.84-.76.57a.43.43 0 0 0 -.15.49l.3.85a.43.43 0 0 1 -.67.48l-.84-.65a.43.43 0 0 0 -.53 0l-.87.67a.43.43 0 0 1 -.67-.49l.32-.86a.43.43 0 0 0 -.13-.48l-.76-.58a.43.43 0 0 1 .26-.77h.95a.42.42 0 0 0 .4-.26q.18-.43.36-.92a.43.43 0 0 1 .8 0l.35.92a.42.42 0 0 0 .4.27h1a.43.43 0 0 1 .24.76z" fill="#fff"/><path d="m58.55 48-1.09.83a.62.62 0 0 0 -.21.7l.43 1.22a.62.62 0 0 1 -1 .69l-1.2-.93a.62.62 0 0 0 -.76 0l-1.24 1a.62.62 0 0 1 -1-.7l.52-1.26a.61.61 0 0 0 -.19-.7l-1.07-.85a.62.62 0 0 1 .37-1.11h1.36a.61.61 0 0 0 .57-.37q.25-.62.52-1.33a.62.62 0 0 1 1.15 0l.51 1.32a.61.61 0 0 0 .57.39h1.37a.62.62 0 0 1 .39 1.1z" fill="#f9c20a"/></svg>